<svg xmlns="http://www.w3.org/2000/svg" xmlns:xlink="http://www.w3.org/1999/xlink" width="1920" zoomAndPan="magnify" viewBox="0 0 1440 809.999993" height="1080" preserveAspectRatio="xMidYMid meet" version="1.0"><defs><clipPath id="71fbb42161"><path d="M 234.496094 14.097656 L 1030 14.097656 L 1030 795.597656 L 234.496094 795.597656 Z M 234.496094 14.097656 " clip-rule="nonzero"/></clipPath><clipPath id="2e7ad139e8"><path d="M 407 47 L 1205.746094 47 L 1205.746094 589 L 407 589 Z M 407 47 " clip-rule="nonzero"/></clipPath><clipPath id="5dfe5f09da"><path d="M 728 351 L 1205.746094 351 L 1205.746094 556 L 728 556 Z M 728 351 " clip-rule="nonzero"/></clipPath><clipPath id="50a60bd217"><path d="M 458 14.097656 L 826 14.097656 L 826 781 L 458 781 Z M 458 14.097656 " clip-rule="nonzero"/></clipPath></defs><path fill="#ffde59" d="M 569.390625 763.191406 L 569.390625 780.886719 L 330.375 780.886719 L 330.375 642.507812 C 330.375 599.695312 365.082031 564.988281 407.894531 564.988281 L 513.921875 564.988281 C 544.554688 564.988281 569.390625 589.824219 569.390625 620.457031 L 569.390625 702.25 C 582.035156 711.101562 594.679688 719.957031 607.324219 728.8125 Z M 569.390625 763.191406 " fill-opacity="1" fill-rule="nonzero"/><g clip-path="url(#71fbb42161)"><path fill="#daa520" d="M 808.652344 39.203125 L 808.652344 339.117188 C 808.652344 352.988281 797.410156 364.222656 783.546875 364.222656 L 483.628906 364.222656 C 469.757812 364.222656 458.515625 352.988281 458.515625 339.117188 L 458.515625 39.203125 C 458.515625 25.339844 469.757812 14.097656 483.628906 14.097656 L 783.542969 14.097656 C 797.410156 14.097656 808.652344 25.339844 808.652344 39.203125 Z M 1029.679688 780.886719 L 234.8125 780.886719 L 234.8125 795.902344 L 1029.679688 795.902344 Z M 1029.679688 780.886719 " fill-opacity="1" fill-rule="nonzero"/></g><g clip-path="url(#2e7ad139e8)"><path fill="#000000" d="M 1205.191406 404.335938 L 1205.191406 573.265625 C 1205.191406 581.433594 1198.570312 588.054688 1190.398438 588.054688 L 1021.175781 588.054688 C 1013.007812 588.054688 1006.386719 581.433594 1006.386719 573.265625 L 1006.386719 365.945312 C 1006.386719 357.777344 1013.007812 351.152344 1021.175781 351.152344 L 1156.128906 351.152344 Z M 852.257812 348.65625 L 717.304688 348.65625 C 709.136719 348.65625 702.515625 355.277344 702.515625 363.445312 L 702.515625 570.765625 C 702.515625 578.9375 709.136719 585.558594 717.304688 585.558594 L 886.527344 585.558594 C 894.695312 585.558594 901.320312 578.9375 901.320312 570.765625 L 901.320312 401.835938 Z M 997.851562 47.851562 L 953.328125 47.851562 C 933.230469 47.851562 916.9375 64.144531 916.9375 84.246094 L 916.9375 95.722656 C 916.9375 115.820312 933.230469 132.113281 953.328125 132.113281 L 993.363281 132.113281 L 1003.335938 163.53125 L 1012.660156 128.960938 C 1025.375 123.285156 1034.242188 110.542969 1034.242188 95.71875 L 1034.242188 84.242188 C 1034.242188 64.148438 1017.949219 47.851562 997.851562 47.851562 Z M 513.441406 409.246094 L 454.566406 409.246094 C 428.828125 409.246094 407.960938 430.113281 407.960938 455.851562 L 407.960938 479.976562 C 407.960938 505.714844 428.828125 526.582031 454.566406 526.582031 L 521.515625 526.582031 L 521.515625 417.316406 C 521.515625 412.859375 517.902344 409.246094 513.441406 409.246094 Z M 513.441406 409.246094 " fill-opacity="1" fill-rule="nonzero"/></g><path fill="#f9b9ac" d="M 477.3125 741.613281 C 482.03125 742.6875 486.324219 743.378906 490.148438 743.835938 C 506.816406 745.824219 524.40625 747.648438 527.4375 756.808594 C 528.433594 759.816406 527.546875 762.839844 526.679688 764.875 C 510.222656 764.972656 493.769531 765.074219 477.3125 765.171875 C 477.3125 757.320312 477.3125 749.464844 477.3125 741.613281 Z M 513.898438 434.84375 L 501.195312 434.84375 C 497.292969 434.84375 493.492188 436.089844 490.390625 438.675781 C 489.789062 439.253906 489.191406 439.824219 488.589844 440.496094 C 484.191406 445.769531 483.988281 452.667969 484.390625 459.949219 C 484.890625 469.246094 486.191406 479.210938 480.6875 487.070312 C 478.789062 489.847656 475.289062 493.394531 468.585938 495.597656 C 468.488281 488.121094 462.984375 482.085938 456.183594 481.988281 C 449.28125 481.796875 443.28125 487.929688 443.28125 495.597656 L 443.28125 567.085938 C 453.484375 574.003906 463.6875 580.925781 473.894531 587.84375 C 484.226562 580.925781 494.5625 574.003906 504.894531 567.085938 C 504.894531 556 504.894531 544.917969 504.894531 533.832031 L 505.394531 533.832031 C 517.496094 533.832031 527.296875 523.195312 527.296875 510.164062 L 527.296875 449.21875 C 527.300781 441.265625 521.300781 434.84375 513.898438 434.84375 Z M 513.898438 434.84375 " fill-opacity="1" fill-rule="nonzero"/><path fill="#000000" d="M 477.3125 780.886719 C 477.3125 764.792969 477.3125 748.699219 477.3125 732.605469 L 458.207031 732.605469 C 456.851562 748.699219 455.496094 764.792969 454.140625 780.886719 C 461.863281 780.886719 469.585938 780.886719 477.3125 780.886719 Z M 473.894531 587.84375 C 467.480469 600.402344 461.066406 612.957031 454.652344 625.511719 C 445.792969 605.335938 436.929688 585.164062 428.070312 564.988281 L 443.28125 550.089844 Z M 473.894531 587.84375 L 504.894531 550.089844 L 521.515625 564.988281 L 493.269531 623.679688 Z M 473.894531 587.84375 " fill-opacity="1" fill-rule="nonzero"/><path fill="#000000" d="M 652.003906 137.472656 C 652.003906 149.585938 642.183594 159.40625 630.070312 159.40625 C 617.957031 159.40625 608.136719 149.585938 608.136719 137.472656 C 608.136719 125.359375 617.957031 115.535156 630.070312 115.535156 C 642.183594 115.535156 652.003906 125.359375 652.003906 137.472656 Z M 666.800781 195.457031 L 666.800781 186.578125 C 666.800781 173.492188 656.195312 162.886719 643.113281 162.886719 L 617.027344 162.886719 C 603.945312 162.886719 593.339844 173.492188 593.339844 186.578125 L 593.339844 195.457031 C 593.339844 201.320312 598.09375 206.074219 603.960938 206.074219 L 656.179688 206.074219 C 662.046875 206.074219 666.800781 201.320312 666.800781 195.457031 Z M 666.800781 195.457031 " fill-opacity="1" fill-rule="nonzero"/><path fill="#ffde59" d="M 542.859375 102.539062 C 542.328125 101.910156 542.40625 100.964844 543.039062 100.433594 C 546.128906 97.828125 549.375 95.324219 552.683594 92.996094 C 553.359375 92.523438 554.292969 92.683594 554.769531 93.359375 C 555.246094 94.035156 555.082031 94.96875 554.40625 95.445312 C 551.167969 97.726562 547.992188 100.171875 544.96875 102.722656 C 544.6875 102.957031 544.34375 103.074219 544.003906 103.074219 C 543.578125 103.070312 543.152344 102.890625 542.859375 102.539062 Z M 498.382812 231.15625 C 497.699219 227.265625 497.175781 223.289062 496.828125 219.339844 C 496.757812 218.519531 496.035156 217.90625 495.207031 217.980469 C 494.382812 218.054688 493.777344 218.777344 493.847656 219.601562 C 494.203125 223.636719 494.734375 227.699219 495.433594 231.675781 C 495.5625 232.402344 496.195312 232.914062 496.90625 232.914062 C 496.992188 232.914062 497.082031 232.90625 497.171875 232.890625 C 497.984375 232.746094 498.527344 231.96875 498.382812 231.15625 Z M 563.691406 89.222656 C 563.945312 89.222656 564.203125 89.15625 564.441406 89.019531 C 567.863281 87.03125 571.414062 85.171875 574.996094 83.492188 C 575.746094 83.140625 576.066406 82.25 575.714844 81.5 C 575.363281 80.753906 574.476562 80.433594 573.726562 80.78125 C 570.066406 82.5 566.4375 84.398438 562.9375 86.429688 C 562.222656 86.84375 561.980469 87.757812 562.394531 88.472656 C 562.671875 88.953125 563.175781 89.222656 563.691406 89.222656 Z M 512.453125 139.652344 C 512.6875 139.789062 512.945312 139.851562 513.199219 139.851562 C 513.714844 139.851562 514.21875 139.582031 514.496094 139.101562 C 516.46875 135.679688 518.625 132.296875 520.894531 129.046875 C 521.371094 128.371094 521.203125 127.4375 520.527344 126.960938 C 519.847656 126.488281 518.917969 126.652344 518.441406 127.332031 C 516.121094 130.652344 513.921875 134.109375 511.902344 137.605469 C 511.492188 138.324219 511.734375 139.238281 512.453125 139.652344 Z M 496.597656 184.929688 C 496.683594 184.945312 496.769531 184.949219 496.855469 184.949219 C 497.570312 184.949219 498.203125 184.4375 498.328125 183.707031 C 499.007812 179.808594 499.863281 175.894531 500.882812 172.070312 C 501.09375 171.269531 500.617188 170.449219 499.816406 170.238281 C 499.023438 170.027344 498.199219 170.5 497.988281 171.300781 C 496.949219 175.207031 496.070312 179.210938 495.378906 183.195312 C 495.238281 184.011719 495.78125 184.785156 496.597656 184.929688 Z M 496.304688 207.4375 L 496.304688 207.273438 C 496.304688 203.355469 496.472656 199.402344 496.800781 195.53125 C 496.871094 194.707031 496.261719 193.980469 495.4375 193.910156 C 494.621094 193.839844 493.890625 194.453125 493.820312 195.273438 C 493.484375 199.234375 493.3125 203.269531 493.3125 207.273438 L 493.3125 207.4375 C 493.3125 208.261719 493.984375 208.933594 494.808594 208.933594 C 495.636719 208.933594 496.304688 208.261719 496.304688 207.4375 Z M 585.476562 79.003906 C 585.648438 79.003906 585.824219 78.972656 585.992188 78.910156 C 589.707031 77.550781 593.53125 76.339844 597.351562 75.3125 C 598.148438 75.097656 598.621094 74.277344 598.40625 73.480469 C 598.191406 72.679688 597.375 72.210938 596.574219 72.421875 C 592.667969 73.472656 588.761719 74.710938 584.960938 76.097656 C 584.1875 76.382812 583.785156 77.242188 584.070312 78.019531 C 584.292969 78.628906 584.867188 79.003906 585.476562 79.003906 Z M 502.527344 161.597656 C 502.695312 161.660156 502.867188 161.6875 503.039062 161.6875 C 503.652344 161.6875 504.226562 161.308594 504.445312 160.703125 C 505.792969 156.984375 507.324219 153.277344 508.996094 149.683594 C 509.347656 148.933594 509.019531 148.042969 508.273438 147.695312 C 507.523438 147.34375 506.632812 147.667969 506.285156 148.417969 C 504.574219 152.09375 503.007812 155.882812 501.632812 159.683594 C 501.351562 160.457031 501.753906 161.316406 502.527344 161.597656 Z M 527 120.121094 C 527.429688 120.121094 527.851562 119.9375 528.148438 119.585938 C 530.6875 116.550781 533.394531 113.589844 536.191406 110.789062 C 536.777344 110.203125 536.773438 109.253906 536.1875 108.671875 C 535.601562 108.085938 534.65625 108.089844 534.070312 108.675781 C 531.214844 111.542969 528.449219 114.566406 525.855469 117.664062 C 525.320312 118.296875 525.40625 119.242188 526.039062 119.773438 C 526.320312 120.003906 526.660156 120.121094 527 120.121094 Z M 744.726562 128.667969 C 745.019531 129.082031 745.484375 129.300781 745.953125 129.300781 C 746.25 129.300781 746.550781 129.210938 746.8125 129.027344 C 747.488281 128.550781 747.648438 127.617188 747.175781 126.941406 C 744.847656 123.636719 742.34375 120.394531 739.734375 117.300781 C 739.203125 116.667969 738.257812 116.585938 737.628906 117.121094 C 736.996094 117.65625 736.914062 118.601562 737.449219 119.230469 C 740 122.257812 742.449219 125.433594 744.726562 128.667969 Z M 756.691406 149.25 C 756.945312 149.792969 757.484375 150.109375 758.046875 150.109375 C 758.261719 150.109375 758.476562 150.066406 758.683594 149.96875 C 759.433594 149.617188 759.753906 148.726562 759.402344 147.976562 C 757.679688 144.316406 755.777344 140.691406 753.75 137.195312 C 753.332031 136.480469 752.417969 136.238281 751.703125 136.652344 C 750.988281 137.070312 750.746094 137.984375 751.160156 138.699219 C 753.148438 142.117188 755.011719 145.667969 756.691406 149.25 Z M 729.375 110.460938 C 729.667969 110.753906 730.046875 110.898438 730.429688 110.898438 C 730.816406 110.898438 731.199219 110.75 731.488281 110.457031 C 732.074219 109.871094 732.070312 108.921875 731.488281 108.339844 C 728.621094 105.484375 725.59375 102.722656 722.492188 100.128906 C 721.859375 99.597656 720.914062 99.679688 720.382812 100.316406 C 719.855469 100.949219 719.9375 101.894531 720.570312 102.421875 C 723.605469 104.960938 726.566406 107.667969 729.375 110.460938 Z M 767.476562 183.230469 C 768.167969 187.125 768.695312 191.101562 769.046875 195.042969 C 769.113281 195.820312 769.765625 196.40625 770.535156 196.40625 C 770.578125 196.40625 770.621094 196.40625 770.667969 196.398438 C 771.492188 196.328125 772.097656 195.601562 772.023438 194.777344 C 771.667969 190.746094 771.128906 186.6875 770.425781 182.707031 C 770.28125 181.890625 769.5 181.351562 768.691406 181.496094 C 767.875 181.640625 767.332031 182.417969 767.476562 183.230469 Z M 656.429688 72.640625 C 660.328125 73.316406 664.246094 74.175781 668.070312 75.1875 C 668.199219 75.222656 668.328125 75.238281 668.453125 75.238281 C 669.117188 75.238281 669.722656 74.792969 669.902344 74.125 C 670.113281 73.324219 669.636719 72.507812 668.839844 72.296875 C 664.929688 71.257812 660.925781 70.382812 656.941406 69.691406 C 656.121094 69.550781 655.351562 70.097656 655.210938 70.914062 C 655.070312 71.726562 655.613281 72.5 656.429688 72.640625 Z M 608.71875 72.75 C 608.804688 72.75 608.894531 72.742188 608.984375 72.726562 C 612.875 72.039062 616.847656 71.511719 620.796875 71.164062 C 621.621094 71.089844 622.226562 70.363281 622.15625 69.539062 C 622.082031 68.71875 621.371094 68.113281 620.53125 68.179688 C 616.496094 68.535156 612.433594 69.074219 608.460938 69.777344 C 607.644531 69.921875 607.101562 70.695312 607.246094 71.511719 C 607.375 72.238281 608.007812 72.75 608.71875 72.75 Z M 632.703125 70.632812 L 632.945312 70.632812 C 636.832031 70.632812 640.757812 70.796875 644.609375 71.121094 C 644.652344 71.125 644.695312 71.128906 644.738281 71.128906 C 645.507812 71.128906 646.160156 70.539062 646.226562 69.757812 C 646.296875 68.933594 645.6875 68.210938 644.863281 68.140625 C 640.925781 67.808594 636.914062 67.640625 632.9375 67.640625 L 632.699219 67.640625 C 631.875 67.640625 631.203125 68.308594 631.203125 69.136719 C 631.203125 69.960938 631.875 70.632812 632.703125 70.632812 Z M 679.441406 78.746094 C 683.164062 80.09375 686.871094 81.621094 690.460938 83.292969 C 690.664062 83.386719 690.878906 83.429688 691.09375 83.429688 C 691.65625 83.429688 692.199219 83.109375 692.453125 82.566406 C 692.796875 81.8125 692.476562 80.925781 691.722656 80.574219 C 688.054688 78.871094 684.261719 77.304688 680.460938 75.929688 C 679.683594 75.652344 678.824219 76.050781 678.542969 76.828125 C 678.261719 77.605469 678.664062 78.464844 679.441406 78.746094 Z M 701.046875 88.785156 C 704.472656 90.757812 707.859375 92.910156 711.105469 95.179688 C 711.367188 95.363281 711.664062 95.449219 711.960938 95.449219 C 712.433594 95.449219 712.898438 95.226562 713.191406 94.808594 C 713.664062 94.132812 713.496094 93.199219 712.820312 92.726562 C 709.5 90.40625 706.042969 88.207031 702.539062 86.191406 C 701.824219 85.78125 700.90625 86.023438 700.496094 86.742188 C 700.082031 87.457031 700.328125 88.371094 701.046875 88.785156 Z M 632.945312 343.914062 C 629.003906 343.914062 625.027344 343.742188 621.121094 343.40625 C 620.316406 343.34375 619.574219 343.945312 619.503906 344.769531 C 619.433594 345.59375 620.042969 346.320312 620.867188 346.390625 C 624.855469 346.730469 628.921875 346.90625 632.945312 346.90625 L 633.03125 346.90625 C 633.855469 346.90625 634.484375 346.238281 634.484375 345.410156 C 634.484375 344.582031 633.769531 343.914062 632.945312 343.914062 Z M 737.640625 295.085938 C 735.09375 298.117188 732.382812 301.074219 729.585938 303.871094 C 729 304.457031 729 305.402344 729.585938 305.988281 C 729.878906 306.28125 730.261719 306.425781 730.644531 306.425781 C 731.027344 306.425781 731.410156 306.28125 731.703125 305.988281 C 734.5625 303.128906 737.332031 300.109375 739.933594 297.007812 C 740.464844 296.375 740.378906 295.429688 739.75 294.898438 C 739.113281 294.371094 738.167969 294.449219 737.640625 295.085938 Z M 763.304688 253.101562 C 762.53125 252.820312 761.671875 253.21875 761.390625 253.996094 C 760.039062 257.707031 758.503906 261.414062 756.824219 265.011719 C 756.476562 265.757812 756.800781 266.648438 757.546875 267 C 757.753906 267.09375 757.96875 267.140625 758.179688 267.140625 C 758.742188 267.140625 759.28125 266.820312 759.535156 266.273438 C 761.25 262.601562 762.820312 258.8125 764.199219 255.019531 C 764.484375 254.242188 764.082031 253.382812 763.304688 253.101562 Z M 753.355469 275.035156 C 752.644531 274.621094 751.726562 274.867188 751.3125 275.582031 C 749.332031 279.003906 747.175781 282.386719 744.898438 285.628906 C 744.425781 286.308594 744.589844 287.238281 745.265625 287.714844 C 745.527344 287.898438 745.828125 287.988281 746.125 287.988281 C 746.597656 287.988281 747.058594 287.765625 747.351562 287.347656 C 749.675781 284.03125 751.882812 280.578125 753.90625 277.078125 C 754.316406 276.363281 754.074219 275.449219 753.355469 275.035156 Z M 701.308594 325.609375 C 697.886719 327.589844 694.332031 329.445312 690.75 331.121094 C 690 331.472656 689.675781 332.363281 690.027344 333.109375 C 690.28125 333.652344 690.820312 333.972656 691.382812 333.972656 C 691.597656 333.972656 691.8125 333.925781 692.015625 333.832031 C 695.675781 332.121094 699.308594 330.226562 702.808594 328.195312 C 703.523438 327.78125 703.769531 326.867188 703.355469 326.152344 C 702.941406 325.4375 702.027344 325.195312 701.308594 325.609375 Z M 720.800781 311.929688 C 717.773438 314.472656 714.59375 316.917969 711.351562 319.195312 C 710.675781 319.667969 710.511719 320.601562 710.988281 321.277344 C 711.277344 321.691406 711.742188 321.914062 712.214844 321.914062 C 712.511719 321.914062 712.8125 321.828125 713.074219 321.640625 C 716.386719 319.316406 719.636719 316.820312 722.726562 314.21875 C 723.359375 313.6875 723.441406 312.742188 722.910156 312.113281 C 722.378906 311.480469 721.433594 311.398438 720.800781 311.929688 Z M 772.578125 206.945312 C 772.578125 206.117188 771.90625 205.449219 771.082031 205.449219 C 770.257812 205.449219 769.585938 206.117188 769.585938 206.945312 L 769.585938 207.273438 C 769.585938 211.246094 769.414062 215.25 769.078125 219.175781 C 769.003906 220 769.617188 220.726562 770.4375 220.796875 C 770.480469 220.800781 770.523438 220.800781 770.566406 220.800781 C 771.335938 220.800781 771.988281 220.214844 772.054688 219.433594 C 772.402344 215.421875 772.582031 211.328125 772.582031 207.257812 Z M 766.328125 172.707031 C 766.457031 172.707031 766.589844 172.691406 766.71875 172.65625 C 767.515625 172.441406 767.992188 171.617188 767.773438 170.820312 C 766.722656 166.914062 765.480469 163.007812 764.089844 159.210938 C 763.804688 158.433594 762.945312 158.039062 762.167969 158.320312 C 761.394531 158.605469 760.996094 159.464844 761.28125 160.242188 C 762.640625 163.957031 763.855469 167.777344 764.886719 171.601562 C 765.0625 172.269531 765.667969 172.707031 766.328125 172.707031 Z M 769.265625 229.777344 C 768.457031 229.640625 767.675781 230.179688 767.535156 230.996094 C 766.851562 234.886719 765.988281 238.804688 764.96875 242.632812 C 764.757812 243.429688 765.230469 244.25 766.027344 244.464844 C 766.160156 244.5 766.289062 244.515625 766.414062 244.515625 C 767.078125 244.515625 767.679688 244.074219 767.859375 243.402344 C 768.902344 239.492188 769.789062 235.492188 770.484375 231.511719 C 770.625 230.695312 770.078125 229.921875 769.265625 229.777344 Z M 609.304688 341.875 C 605.402344 341.195312 601.484375 340.332031 597.664062 339.316406 C 596.863281 339.101562 596.046875 339.578125 595.832031 340.375 C 595.621094 341.175781 596.09375 341.996094 596.894531 342.207031 C 600.796875 343.25 604.796875 344.128906 608.789062 344.824219 C 608.875 344.839844 608.960938 344.847656 609.046875 344.847656 C 609.761719 344.847656 610.394531 344.332031 610.519531 343.605469 C 610.664062 342.792969 610.117188 342.019531 609.304688 341.875 Z M 521.070312 285.746094 C 520.59375 285.070312 519.660156 284.90625 518.984375 285.382812 C 518.308594 285.859375 518.144531 286.792969 518.621094 287.46875 C 520.945312 290.777344 523.445312 294.027344 526.050781 297.121094 C 526.34375 297.472656 526.769531 297.652344 527.195312 297.652344 C 527.535156 297.652344 527.878906 297.539062 528.160156 297.300781 C 528.789062 296.769531 528.871094 295.824219 528.339844 295.191406 C 525.792969 292.160156 523.347656 288.984375 521.070312 285.746094 Z M 564.707031 325.679688 C 561.28125 323.703125 557.898438 321.546875 554.652344 319.273438 C 553.976562 318.800781 553.042969 318.964844 552.570312 319.640625 C 552.097656 320.320312 552.261719 321.253906 552.9375 321.726562 C 556.25 324.046875 559.707031 326.25 563.210938 328.273438 C 563.445312 328.410156 563.703125 328.476562 563.957031 328.476562 C 564.472656 328.476562 564.976562 328.207031 565.253906 327.726562 C 565.667969 327.007812 565.425781 326.09375 564.707031 325.679688 Z M 536.402344 303.96875 C 535.820312 303.386719 534.871094 303.386719 534.289062 303.972656 C 533.703125 304.558594 533.703125 305.503906 534.289062 306.089844 C 537.152344 308.945312 540.171875 311.714844 543.273438 314.3125 C 543.550781 314.546875 543.894531 314.664062 544.230469 314.664062 C 544.660156 314.664062 545.085938 314.480469 545.378906 314.128906 C 545.910156 313.496094 545.828125 312.550781 545.195312 312.019531 C 542.160156 309.472656 539.203125 306.765625 536.402344 303.96875 Z M 509.132812 265.148438 C 508.78125 264.398438 507.890625 264.078125 507.144531 264.429688 C 506.394531 264.777344 506.074219 265.667969 506.421875 266.417969 C 508.132812 270.070312 510.03125 273.703125 512.0625 277.207031 C 512.339844 277.6875 512.84375 277.953125 513.359375 277.953125 C 513.613281 277.953125 513.871094 277.890625 514.109375 277.75 C 514.824219 277.335938 515.066406 276.421875 514.652344 275.707031 C 512.660156 272.277344 510.804688 268.726562 509.132812 265.148438 Z M 656.75 341.847656 C 652.859375 342.53125 648.886719 343.050781 644.933594 343.394531 C 644.109375 343.46875 643.5 344.191406 643.570312 345.015625 C 643.640625 345.796875 644.292969 346.382812 645.058594 346.382812 C 645.105469 346.382812 645.148438 346.378906 645.191406 346.375 C 649.230469 346.023438 653.292969 345.492188 657.265625 344.792969 C 658.078125 344.652344 658.625 343.875 658.480469 343.0625 C 658.339844 342.25 657.570312 341.707031 656.75 341.847656 Z M 679.746094 335.6875 C 676.027344 337.046875 672.203125 338.25 668.382812 339.273438 C 667.582031 339.488281 667.109375 340.308594 667.324219 341.105469 C 667.503906 341.773438 668.109375 342.214844 668.769531 342.214844 C 668.898438 342.214844 669.027344 342.199219 669.15625 342.164062 C 673.0625 341.121094 676.96875 339.886719 680.769531 338.5 C 681.546875 338.214844 681.949219 337.359375 681.664062 336.582031 C 681.382812 335.804688 680.519531 335.40625 679.746094 335.6875 Z M 500.964844 242.789062 C 500.75 241.992188 499.925781 241.515625 499.132812 241.734375 C 498.335938 241.945312 497.859375 242.769531 498.074219 243.566406 C 499.121094 247.472656 500.355469 251.378906 501.746094 255.179688 C 501.964844 255.785156 502.539062 256.160156 503.148438 256.160156 C 503.320312 256.160156 503.492188 256.132812 503.664062 256.070312 C 504.441406 255.785156 504.839844 254.925781 504.554688 254.152344 C 503.199219 250.433594 501.992188 246.609375 500.964844 242.789062 Z M 586.296875 335.746094 C 582.578125 334.394531 578.871094 332.859375 575.28125 331.1875 C 574.53125 330.835938 573.640625 331.160156 573.292969 331.910156 C 572.941406 332.660156 573.265625 333.550781 574.015625 333.898438 C 577.6875 335.613281 581.476562 337.179688 585.277344 338.558594 C 585.445312 338.621094 585.617188 338.648438 585.785156 338.648438 C 586.398438 338.648438 586.972656 338.269531 587.195312 337.664062 C 587.476562 336.882812 587.074219 336.027344 586.296875 335.746094 Z M 578.542969 181.410156 C 578.542969 193.523438 568.722656 203.34375 556.609375 203.34375 C 544.496094 203.34375 534.675781 193.523438 534.675781 181.410156 C 534.675781 169.296875 544.496094 159.476562 556.609375 159.476562 C 568.722656 159.476562 578.542969 169.296875 578.542969 181.410156 Z M 593.339844 239.394531 L 593.339844 230.511719 C 593.339844 217.429688 582.734375 206.824219 569.648438 206.824219 L 543.566406 206.824219 C 530.484375 206.824219 519.878906 217.429688 519.878906 230.511719 L 519.878906 239.394531 C 519.878906 245.261719 524.632812 250.015625 530.496094 250.015625 L 582.71875 250.015625 C 588.585938 250.015625 593.339844 245.261719 593.339844 239.394531 Z M 728.972656 181.410156 C 728.972656 193.523438 719.152344 203.34375 707.039062 203.34375 C 694.921875 203.34375 685.105469 193.523438 685.105469 181.410156 C 685.105469 169.296875 694.925781 159.476562 707.039062 159.476562 C 719.152344 159.476562 728.972656 169.296875 728.972656 181.410156 Z M 743.769531 239.394531 L 743.769531 230.511719 C 743.769531 217.429688 733.164062 206.824219 720.082031 206.824219 L 693.996094 206.824219 C 680.914062 206.824219 670.308594 217.429688 670.308594 230.511719 L 670.308594 239.394531 C 670.308594 245.261719 675.0625 250.015625 680.925781 250.015625 L 733.148438 250.015625 C 739.015625 250.015625 743.769531 245.261719 743.769531 239.394531 Z M 653.757812 237.320312 C 653.757812 249.433594 643.9375 259.257812 631.824219 259.257812 C 619.710938 259.257812 609.886719 249.433594 609.886719 237.320312 C 609.886719 225.207031 619.710938 215.386719 631.824219 215.386719 C 643.9375 215.386719 653.757812 225.207031 653.757812 237.320312 Z M 668.554688 295.304688 L 668.554688 286.425781 C 668.554688 273.34375 657.949219 262.738281 644.863281 262.738281 L 618.78125 262.738281 C 605.699219 262.738281 595.09375 273.34375 595.09375 286.425781 L 595.09375 295.304688 C 595.09375 301.171875 599.847656 305.925781 605.710938 305.925781 L 657.933594 305.925781 C 663.796875 305.925781 668.554688 301.171875 668.554688 295.304688 Z M 668.554688 295.304688 " fill-opacity="1" fill-rule="nonzero"/><path fill="#daa520" d="M 909.992188 145.707031 L 954.515625 145.707031 C 974.613281 145.707031 990.90625 162 990.90625 182.097656 L 990.90625 193.578125 C 990.90625 213.675781 974.613281 229.96875 954.515625 229.96875 L 914.476562 229.96875 L 904.507812 261.386719 L 895.179688 226.816406 C 882.464844 221.140625 873.601562 208.398438 873.601562 193.574219 L 873.601562 182.097656 C 873.601562 162 889.894531 145.707031 909.992188 145.707031 Z M 1000.929688 317.195312 L 865.976562 317.195312 C 857.808594 317.195312 851.1875 323.820312 851.1875 331.988281 L 851.1875 539.308594 C 851.1875 547.476562 857.808594 554.097656 865.976562 554.097656 L 1035.199219 554.097656 C 1043.371094 554.097656 1049.992188 547.476562 1049.992188 539.308594 L 1049.992188 370.375 Z M 1000.929688 317.195312 " fill-opacity="1" fill-rule="nonzero"/><path fill="#000000" d="M 660.96875 88.414062 C 622 72.945312 577.777344 92.0625 562.308594 131.03125 C 546.835938 169.996094 565.957031 214.222656 604.921875 229.691406 C 640.972656 243.992188 681.691406 228.671875 699.789062 195.394531 L 804.433594 236.988281 L 811.148438 220.058594 L 706.355469 178.460938 C 716.136719 141.832031 697.015625 102.714844 660.96875 88.414062 Z M 690.742188 181.964844 C 678.042969 213.929688 641.992188 229.398438 610.03125 216.847656 C 578.070312 204.148438 562.597656 168.101562 575.152344 136.140625 C 587.847656 104.175781 623.898438 88.707031 655.859375 101.257812 C 687.820312 113.957031 703.292969 150.148438 690.742188 181.964844 Z M 960.300781 180.023438 C 964.527344 180.023438 967.957031 183.449219 967.957031 187.679688 C 967.957031 191.910156 964.527344 195.339844 960.300781 195.339844 C 956.070312 195.339844 952.640625 191.910156 952.640625 187.679688 C 952.640625 183.449219 956.070312 180.023438 960.300781 180.023438 Z M 932.253906 180.023438 C 936.484375 180.023438 939.910156 183.449219 939.910156 187.679688 C 939.910156 191.910156 936.484375 195.339844 932.253906 195.339844 C 928.023438 195.339844 924.59375 191.910156 924.59375 187.679688 C 924.59375 183.449219 928.023438 180.023438 932.253906 180.023438 Z M 904.207031 180.023438 C 908.4375 180.023438 911.863281 183.449219 911.863281 187.679688 C 911.863281 191.910156 908.4375 195.339844 904.207031 195.339844 C 899.976562 195.339844 896.546875 191.910156 896.546875 187.679688 C 896.546875 183.449219 899.976562 180.023438 904.207031 180.023438 Z M 904.207031 180.023438 " fill-opacity="1" fill-rule="nonzero"/><g clip-path="url(#5dfe5f09da)"><path fill="#ffde59" d="M 1205.191406 404.335938 L 1169.539062 404.085938 C 1162.117188 404.035156 1156.128906 398.007812 1156.128906 390.585938 L 1156.128906 351.152344 Z M 1079.625 373.515625 C 1073.660156 373.515625 1068.824219 378.351562 1068.824219 384.316406 C 1068.824219 390.285156 1073.660156 395.121094 1079.625 395.121094 C 1085.59375 395.121094 1090.429688 390.285156 1090.429688 384.316406 C 1090.425781 378.351562 1085.589844 373.515625 1079.625 373.515625 Z M 1092.484375 418.109375 L 1066.765625 418.109375 C 1063.875 418.109375 1061.535156 415.765625 1061.535156 412.878906 L 1061.535156 408.503906 C 1061.535156 402.058594 1066.757812 396.835938 1073.203125 396.835938 L 1086.046875 396.835938 C 1092.492188 396.835938 1097.714844 402.0625 1097.714844 408.503906 L 1097.714844 412.878906 C 1097.714844 415.765625 1095.375 418.109375 1092.484375 418.109375 Z M 1155.882812 451.792969 L 1065.8125 451.792969 C 1063.613281 451.792969 1061.824219 450.007812 1061.824219 447.808594 L 1061.824219 445.742188 C 1061.824219 443.542969 1063.613281 441.753906 1065.8125 441.753906 L 1155.882812 441.753906 C 1158.085938 441.753906 1159.871094 443.542969 1159.871094 445.742188 L 1159.871094 447.808594 C 1159.871094 450.007812 1158.085938 451.792969 1155.882812 451.792969 Z M 1155.882812 472.566406 L 1065.8125 472.566406 C 1063.613281 472.566406 1061.824219 470.78125 1061.824219 468.578125 L 1061.824219 466.515625 C 1061.824219 464.3125 1063.613281 462.527344 1065.8125 462.527344 L 1155.882812 462.527344 C 1158.085938 462.527344 1159.871094 464.3125 1159.871094 466.515625 L 1159.871094 468.578125 C 1159.871094 470.78125 1158.085938 472.566406 1155.882812 472.566406 Z M 1155.882812 493.339844 L 1065.8125 493.339844 C 1063.613281 493.339844 1061.824219 491.554688 1061.824219 489.351562 L 1061.824219 487.289062 C 1061.824219 485.085938 1063.613281 483.300781 1065.8125 483.300781 L 1155.882812 483.300781 C 1158.085938 483.300781 1159.871094 485.085938 1159.871094 487.289062 L 1159.871094 489.351562 C 1159.871094 491.554688 1158.085938 493.339844 1155.882812 493.339844 Z M 1129.488281 514.109375 L 1065.8125 514.109375 C 1063.613281 514.109375 1061.824219 512.324219 1061.824219 510.121094 L 1061.824219 508.058594 C 1061.824219 505.859375 1063.613281 504.070312 1065.8125 504.070312 L 1129.488281 504.070312 C 1131.691406 504.070312 1133.476562 505.859375 1133.476562 508.058594 L 1133.476562 510.121094 C 1133.476562 512.324219 1131.691406 514.109375 1129.488281 514.109375 Z M 1129.488281 534.882812 L 1065.8125 534.882812 C 1063.613281 534.882812 1061.824219 533.097656 1061.824219 530.894531 L 1061.824219 528.832031 C 1061.824219 526.628906 1063.613281 524.84375 1065.8125 524.84375 L 1129.488281 524.84375 C 1131.691406 524.84375 1133.476562 526.628906 1133.476562 528.832031 L 1133.476562 530.894531 C 1133.476562 533.097656 1131.691406 534.882812 1129.488281 534.882812 Z M 1129.488281 555.65625 L 1065.8125 555.65625 C 1063.613281 555.65625 1061.824219 553.871094 1061.824219 551.667969 L 1061.824219 549.605469 C 1061.824219 547.402344 1063.613281 545.617188 1065.8125 545.617188 L 1129.488281 545.617188 C 1131.691406 545.617188 1133.476562 547.402344 1133.476562 549.605469 L 1133.476562 551.667969 C 1133.476562 553.871094 1131.691406 555.65625 1129.488281 555.65625 Z M 746.367188 373.515625 C 740.402344 373.515625 735.566406 378.351562 735.566406 384.316406 C 735.566406 390.285156 740.402344 395.121094 746.367188 395.121094 C 752.335938 395.121094 757.171875 390.285156 757.171875 384.316406 C 757.171875 378.351562 752.335938 373.515625 746.367188 373.515625 Z M 759.226562 418.109375 L 733.507812 418.109375 C 730.621094 418.109375 728.277344 415.765625 728.277344 412.878906 L 728.277344 408.503906 C 728.277344 402.058594 733.503906 396.835938 739.945312 396.835938 L 752.792969 396.835938 C 759.234375 396.835938 764.457031 402.0625 764.457031 408.503906 L 764.457031 412.878906 C 764.457031 415.765625 762.117188 418.109375 759.226562 418.109375 Z M 822.625 451.792969 L 732.554688 451.792969 C 730.351562 451.792969 728.566406 450.007812 728.566406 447.808594 L 728.566406 445.742188 C 728.566406 443.542969 730.351562 441.753906 732.554688 441.753906 L 822.625 441.753906 C 824.828125 441.753906 826.613281 443.542969 826.613281 445.742188 L 826.613281 447.808594 C 826.613281 450.007812 824.828125 451.792969 822.625 451.792969 Z M 822.625 472.566406 L 732.554688 472.566406 C 730.351562 472.566406 728.566406 470.78125 728.566406 468.578125 L 728.566406 466.515625 C 728.566406 464.3125 730.351562 462.527344 732.554688 462.527344 L 822.625 462.527344 C 824.828125 462.527344 826.613281 464.3125 826.613281 466.515625 L 826.613281 468.578125 C 826.613281 470.78125 824.828125 472.566406 822.625 472.566406 Z M 822.625 493.339844 L 732.554688 493.339844 C 730.351562 493.339844 728.566406 491.554688 728.566406 489.351562 L 728.566406 487.289062 C 728.566406 485.085938 730.351562 483.300781 732.554688 483.300781 L 822.625 483.300781 C 824.828125 483.300781 826.613281 485.085938 826.613281 487.289062 L 826.613281 489.351562 C 826.613281 491.554688 824.828125 493.339844 822.625 493.339844 Z M 796.230469 514.109375 L 732.554688 514.109375 C 730.355469 514.109375 728.570312 512.324219 728.570312 510.121094 L 728.570312 508.058594 C 728.570312 505.859375 730.355469 504.070312 732.554688 504.070312 L 796.230469 504.070312 C 798.433594 504.070312 800.21875 505.859375 800.21875 508.058594 L 800.21875 510.121094 C 800.21875 512.324219 798.433594 514.109375 796.230469 514.109375 Z M 796.230469 534.882812 L 732.554688 534.882812 C 730.355469 534.882812 728.570312 533.097656 728.570312 530.894531 L 728.570312 528.832031 C 728.570312 526.628906 730.355469 524.84375 732.554688 524.84375 L 796.230469 524.84375 C 798.433594 524.84375 800.21875 526.628906 800.21875 528.832031 L 800.21875 530.894531 C 800.21875 533.097656 798.433594 534.882812 796.230469 534.882812 Z M 796.230469 555.65625 L 732.554688 555.65625 C 730.355469 555.65625 728.570312 553.871094 728.570312 551.667969 L 728.570312 549.605469 C 728.570312 547.402344 730.355469 545.617188 732.554688 545.617188 L 796.230469 545.617188 C 798.433594 545.617188 800.21875 547.402344 800.21875 549.605469 L 800.21875 551.667969 C 800.21875 553.871094 798.433594 555.65625 796.230469 555.65625 Z M 1022.46875 414.007812 L 877.179688 414.007812 L 877.179688 421.390625 L 1022.46875 421.390625 Z M 1022.46875 448.109375 L 877.179688 448.109375 L 877.179688 440.722656 L 1022.46875 440.722656 Z M 1022.46875 476.09375 L 877.179688 476.09375 L 877.179688 468.710938 L 1022.46875 468.710938 Z M 889.792969 500.441406 L 892.394531 505.378906 C 892.574219 505.714844 892.921875 505.953125 893.320312 506.007812 L 899.144531 506.796875 C 900.152344 506.9375 900.558594 508.097656 899.824219 508.765625 L 895.613281 512.609375 C 895.320312 512.871094 895.191406 513.253906 895.257812 513.628906 L 896.253906 519.050781 C 896.425781 519.992188 895.371094 520.710938 894.46875 520.269531 L 889.261719 517.703125 C 888.902344 517.527344 888.476562 517.527344 888.117188 517.703125 L 882.910156 520.269531 C 882.003906 520.710938 880.949219 519.992188 881.121094 519.050781 L 882.117188 513.628906 C 882.1875 513.253906 882.054688 512.871094 881.765625 512.609375 L 877.550781 508.765625 C 876.820312 508.097656 877.226562 506.9375 878.234375 506.796875 L 884.054688 506.007812 C 884.453125 505.953125 884.800781 505.714844 884.980469 505.378906 L 887.585938 500.441406 C 888.035156 499.582031 889.339844 499.582031 889.792969 500.441406 Z M 918.152344 500.441406 L 915.550781 505.378906 C 915.367188 505.714844 915.023438 505.953125 914.621094 506.007812 L 908.800781 506.796875 C 907.789062 506.9375 907.386719 508.097656 908.117188 508.765625 L 912.332031 512.609375 C 912.621094 512.871094 912.753906 513.253906 912.683594 513.628906 L 911.691406 519.050781 C 911.519531 519.992188 912.574219 520.710938 913.476562 520.269531 L 918.683594 517.703125 C 919.039062 517.527344 919.46875 517.527344 919.828125 517.703125 L 925.035156 520.269531 C 925.9375 520.710938 926.996094 519.992188 926.820312 519.050781 L 925.828125 513.628906 C 925.757812 513.253906 925.890625 512.871094 926.179688 512.609375 L 930.390625 508.765625 C 931.121094 508.097656 930.71875 506.9375 929.710938 506.796875 L 923.890625 506.007812 C 923.488281 505.953125 923.140625 505.714844 922.960938 505.378906 L 920.359375 500.441406 C 919.90625 499.582031 918.605469 499.582031 918.152344 500.441406 Z M 948.722656 500.441406 L 946.117188 505.378906 C 945.9375 505.714844 945.59375 505.953125 945.191406 506.007812 L 939.367188 506.796875 C 938.359375 506.9375 937.957031 508.097656 938.6875 508.765625 L 942.898438 512.609375 C 943.191406 512.871094 943.320312 513.253906 943.253906 513.628906 L 942.257812 519.050781 C 942.085938 519.992188 943.140625 520.710938 944.042969 520.269531 L 949.25 517.703125 C 949.609375 517.527344 950.039062 517.527344 950.398438 517.703125 L 955.605469 520.269531 C 956.507812 520.710938 957.5625 519.992188 957.390625 519.050781 L 956.394531 513.628906 C 956.328125 513.253906 956.460938 512.871094 956.75 512.609375 L 960.960938 508.765625 C 961.691406 508.097656 961.289062 506.9375 960.277344 506.796875 L 954.457031 506.007812 C 954.058594 505.953125 953.710938 505.714844 953.53125 505.378906 L 950.925781 500.441406 C 950.476562 499.582031 949.171875 499.582031 948.722656 500.441406 Z M 979.289062 500.441406 L 976.683594 505.378906 C 976.503906 505.714844 976.160156 505.953125 975.757812 506.007812 L 969.9375 506.796875 C 968.925781 506.9375 968.523438 508.097656 969.253906 508.765625 L 973.464844 512.609375 C 973.757812 512.871094 973.890625 513.253906 973.820312 513.628906 L 972.824219 519.050781 C 972.652344 519.992188 973.707031 520.710938 974.609375 520.269531 L 979.816406 517.703125 C 980.175781 517.527344 980.605469 517.527344 980.964844 517.703125 L 986.171875 520.269531 C 987.074219 520.710938 988.128906 519.992188 987.957031 519.050781 L 986.960938 513.628906 C 986.894531 513.253906 987.027344 512.871094 987.316406 512.609375 L 991.527344 508.765625 C 992.257812 508.097656 991.855469 506.9375 990.847656 506.796875 L 985.023438 506.007812 C 984.625 505.953125 984.277344 505.714844 984.097656 505.378906 L 981.496094 500.441406 C 981.042969 499.582031 979.738281 499.582031 979.289062 500.441406 Z M 1009.855469 500.441406 L 1007.253906 505.378906 C 1007.074219 505.714844 1006.726562 505.953125 1006.324219 506.007812 L 1000.503906 506.796875 C 999.496094 506.9375 999.089844 508.097656 999.824219 508.765625 L 1004.035156 512.609375 C 1004.324219 512.871094 1004.457031 513.253906 1004.386719 513.628906 L 1003.394531 519.050781 C 1003.222656 519.992188 1004.277344 520.710938 1005.179688 520.269531 L 1010.386719 517.703125 C 1010.746094 517.527344 1011.171875 517.527344 1011.53125 517.703125 L 1016.738281 520.269531 C 1017.644531 520.710938 1018.699219 519.992188 1018.523438 519.050781 L 1017.53125 513.628906 C 1017.460938 513.253906 1017.59375 512.871094 1017.882812 512.609375 L 1022.097656 508.765625 C 1022.828125 508.097656 1022.421875 506.9375 1021.414062 506.796875 L 1015.59375 506.007812 C 1015.191406 505.953125 1014.847656 505.714844 1014.667969 505.378906 L 1012.0625 500.441406 C 1011.613281 499.582031 1010.308594 499.582031 1009.855469 500.441406 Z M 1009.855469 500.441406 " fill-opacity="1" fill-rule="nonzero"/></g><g clip-path="url(#50a60bd217)"><path fill="#000000" d="M 609 648.257812 L 568.039062 764.414062 L 477.3125 764.414062 L 477.3125 780.886719 L 733.25 780.886719 L 776.316406 648.257812 Z M 808.652344 39.203125 L 808.652344 48.554688 L 458.515625 48.554688 L 458.515625 39.203125 C 458.515625 25.339844 469.757812 14.097656 483.628906 14.097656 L 783.542969 14.097656 C 797.410156 14.097656 808.652344 25.339844 808.652344 39.203125 Z M 825.742188 221.664062 L 816.109375 245.746094 L 719.933594 207.507812 L 729.5625 183.425781 Z M 825.742188 221.664062 " fill-opacity="1" fill-rule="nonzero"/></g><path fill="#000000" d="M 1049.988281 370.375 L 1014.335938 370.128906 C 1006.917969 370.078125 1000.929688 364.046875 1000.929688 356.625 L 1000.929688 317.195312 Z M 895.265625 341.632812 C 889.300781 341.632812 884.464844 346.472656 884.464844 352.4375 C 884.464844 358.40625 889.300781 363.242188 895.265625 363.242188 C 901.234375 363.242188 906.070312 358.40625 906.070312 352.4375 C 906.070312 346.472656 901.234375 341.632812 895.265625 341.632812 Z M 908.128906 386.226562 L 882.40625 386.226562 C 879.519531 386.226562 877.179688 383.882812 877.179688 380.996094 L 877.179688 376.621094 C 877.179688 370.179688 882.402344 364.957031 888.84375 364.957031 L 901.691406 364.957031 C 908.132812 364.957031 913.355469 370.179688 913.355469 376.621094 L 913.355469 380.996094 C 913.359375 383.886719 911.015625 386.226562 908.128906 386.226562 Z M 968.535156 426.21875 L 965.507812 426.21875 C 962.273438 426.21875 959.652344 423.597656 959.652344 420.367188 L 959.652344 413.324219 C 959.652344 410.09375 962.273438 407.472656 965.507812 407.472656 L 968.535156 407.472656 C 971.769531 407.472656 974.390625 410.09375 974.390625 413.324219 L 974.390625 420.367188 C 974.390625 423.597656 971.769531 426.21875 968.535156 426.21875 Z M 995.394531 447.082031 L 995.394531 440.039062 C 995.394531 436.808594 992.773438 434.1875 989.539062 434.1875 L 986.511719 434.1875 C 983.277344 434.1875 980.65625 436.808594 980.65625 440.039062 L 980.65625 447.082031 C 980.65625 450.316406 983.277344 452.933594 986.511719 452.933594 L 989.539062 452.933594 C 992.773438 452.933594 995.394531 450.316406 995.394531 447.082031 Z M 1016.398438 475.066406 L 1016.398438 468.027344 C 1016.398438 464.792969 1013.777344 462.171875 1010.546875 462.171875 L 1007.515625 462.171875 C 1004.285156 462.171875 1001.664062 464.792969 1001.664062 468.027344 L 1001.664062 475.066406 C 1001.664062 478.300781 1004.285156 480.921875 1007.515625 480.921875 L 1010.546875 480.921875 C 1013.777344 480.921875 1016.398438 478.300781 1016.398438 475.066406 Z M 1016.398438 475.066406 " fill-opacity="1" fill-rule="nonzero"/><path fill="#daa520" d="M 955.199219 89.824219 C 955.199219 94.054688 951.769531 97.484375 947.542969 97.484375 C 943.3125 97.484375 939.882812 94.054688 939.882812 89.824219 C 939.882812 85.59375 943.3125 82.167969 947.542969 82.167969 C 951.769531 82.167969 955.199219 85.59375 955.199219 89.824219 Z M 975.589844 82.167969 C 971.359375 82.167969 967.929688 85.597656 967.929688 89.828125 C 967.929688 94.054688 971.359375 97.484375 975.589844 97.484375 C 979.820312 97.484375 983.25 94.054688 983.25 89.828125 C 983.246094 85.59375 979.820312 82.167969 975.589844 82.167969 Z M 1003.636719 82.167969 C 999.40625 82.167969 995.976562 85.597656 995.976562 89.828125 C 995.976562 94.054688 999.40625 97.484375 1003.636719 97.484375 C 1007.867188 97.484375 1011.296875 94.054688 1011.296875 89.828125 C 1011.292969 85.59375 1007.867188 82.167969 1003.636719 82.167969 Z M 677.023438 706.210938 C 669.394531 706.210938 663.207031 712.394531 663.207031 720.023438 C 663.207031 727.652344 669.394531 733.835938 677.023438 733.835938 C 684.652344 733.835938 690.835938 727.652344 690.835938 720.023438 C 690.835938 712.394531 684.652344 706.210938 677.023438 706.210938 Z M 1073.914062 275.699219 C 1075.9375 273.675781 1077.238281 271.652344 1078.109375 269.769531 C 1078.6875 268.46875 1080.566406 268.46875 1081.144531 269.769531 C 1082.011719 271.652344 1083.3125 273.675781 1085.339844 275.699219 C 1087.363281 277.722656 1089.53125 279.023438 1091.265625 279.890625 C 1092.566406 280.472656 1092.566406 282.351562 1091.265625 282.929688 C 1089.386719 283.796875 1087.21875 285.097656 1085.339844 287.121094 C 1083.3125 289.148438 1082.011719 291.171875 1081.144531 293.050781 C 1080.566406 294.351562 1078.6875 294.351562 1078.109375 293.050781 C 1077.238281 291.171875 1075.9375 289.144531 1073.914062 287.121094 C 1071.890625 285.097656 1069.722656 283.796875 1067.988281 282.929688 C 1066.6875 282.351562 1066.6875 280.472656 1067.988281 279.890625 C 1069.722656 279.023438 1071.890625 277.722656 1073.914062 275.699219 Z M 616.449219 436.042969 C 618.472656 434.019531 619.773438 431.996094 620.644531 430.117188 C 621.222656 428.816406 623.101562 428.816406 623.679688 430.117188 C 624.546875 431.996094 625.847656 434.019531 627.871094 436.042969 C 629.898438 438.066406 632.066406 439.371094 633.800781 440.238281 C 635.101562 440.816406 635.101562 442.695312 633.800781 443.273438 C 631.921875 444.140625 629.753906 445.441406 627.871094 447.46875 C 625.847656 449.492188 624.546875 451.515625 623.679688 453.394531 C 623.101562 454.695312 621.222656 454.695312 620.644531 453.394531 C 619.773438 451.515625 618.472656 449.492188 616.449219 447.46875 C 614.425781 445.441406 612.253906 444.140625 610.523438 443.273438 C 609.21875 442.695312 609.21875 440.816406 610.523438 440.238281 C 612.253906 439.371094 614.425781 438.070312 616.449219 436.042969 Z M 918.882812 642.050781 C 920.910156 640.023438 922.210938 638 923.078125 636.121094 C 923.65625 634.820312 925.535156 634.820312 926.113281 636.121094 C 926.980469 638 928.28125 640.027344 930.308594 642.050781 C 932.332031 644.074219 934.5 645.375 936.234375 646.242188 C 937.535156 646.820312 937.535156 648.699219 936.234375 649.28125 C 934.355469 650.148438 932.1875 651.449219 930.308594 653.472656 C 928.28125 655.496094 926.980469 657.519531 926.113281 659.402344 C 925.535156 660.703125 923.65625 660.703125 923.078125 659.402344 C 922.210938 657.519531 920.910156 655.496094 918.882812 653.472656 C 916.859375 651.449219 914.691406 650.148438 912.957031 649.28125 C 911.65625 648.699219 911.65625 646.820312 912.957031 646.242188 C 914.691406 645.375 916.859375 644.074219 918.882812 642.050781 Z M 850.519531 67.035156 C 852.546875 65.011719 853.847656 62.988281 854.714844 61.109375 C 855.292969 59.808594 857.171875 59.808594 857.75 61.109375 C 858.621094 62.988281 859.921875 65.011719 861.945312 67.035156 C 863.96875 69.0625 866.140625 70.363281 867.871094 71.230469 C 869.171875 71.808594 869.171875 73.6875 867.871094 74.265625 C 865.992188 75.132812 863.824219 76.4375 861.945312 78.460938 C 859.921875 80.484375 858.621094 82.507812 857.75 84.386719 C 857.171875 85.6875 855.292969 85.6875 854.714844 84.386719 C 853.847656 82.507812 852.546875 80.484375 850.519531 78.460938 C 848.496094 76.4375 846.328125 75.132812 844.59375 74.265625 C 843.292969 73.6875 843.292969 71.808594 844.59375 71.230469 C 846.328125 70.363281 848.496094 69.0625 850.519531 67.035156 Z M 491.644531 31.324219 C 491.644531 34.699219 488.910156 37.433594 485.535156 37.433594 C 482.160156 37.433594 479.425781 34.699219 479.425781 31.324219 C 479.425781 27.949219 482.160156 25.214844 485.535156 25.214844 C 488.910156 25.214844 491.644531 27.949219 491.644531 31.324219 Z M 506.835938 25.214844 C 503.460938 25.214844 500.726562 27.949219 500.726562 31.324219 C 500.726562 34.699219 503.460938 37.433594 506.835938 37.433594 C 510.210938 37.433594 512.945312 34.699219 512.945312 31.324219 C 512.945312 27.949219 510.210938 25.214844 506.835938 25.214844 Z M 528.136719 25.214844 C 524.765625 25.214844 522.027344 27.949219 522.027344 31.324219 C 522.027344 34.699219 524.765625 37.433594 528.136719 37.433594 C 531.511719 37.433594 534.246094 34.699219 534.246094 31.324219 C 534.246094 27.949219 531.511719 25.214844 528.136719 25.214844 Z M 528.136719 25.214844 " fill-opacity="1" fill-rule="nonzero"/></svg>