<svg xmlns="http://www.w3.org/2000/svg" xmlns:xlink="http://www.w3.org/1999/xlink" width="1920" zoomAndPan="magnify" viewBox="0 0 1440 809.999993" height="1080" preserveAspectRatio="xMidYMid meet" version="1.0"><defs><clipPath id="12c7a862dd"><path d="M 381 133.210938 L 906 133.210938 L 906 648.460938 L 381 648.460938 Z M 381 133.210938 " clip-rule="nonzero"/></clipPath><clipPath id="8c210cee31"><path d="M 495 155 L 1020.699219 155 L 1020.699219 512 L 495 512 Z M 495 155 " clip-rule="nonzero"/></clipPath><clipPath id="2685400719"><path d="M 706 355 L 1020.699219 355 L 1020.699219 491 L 706 491 Z M 706 355 " clip-rule="nonzero"/></clipPath><clipPath id="f17b439280"><path d="M 528 133.210938 L 771 133.210938 L 771 639 L 528 639 Z M 528 133.210938 " clip-rule="nonzero"/></clipPath></defs><path fill="#ffde59" d="M 601.65625 626.890625 L 601.65625 638.554688 L 444.132812 638.554688 L 444.132812 547.359375 C 444.132812 519.140625 467.007812 496.269531 495.222656 496.269531 L 565.097656 496.269531 C 585.289062 496.269531 601.652344 512.636719 601.652344 532.824219 L 601.652344 586.730469 C 609.988281 592.5625 618.320312 598.398438 626.65625 604.234375 Z M 601.65625 626.890625 " fill-opacity="1" fill-rule="nonzero"/><g clip-path="url(#12c7a862dd)"><path fill="#daa520" d="M 759.335938 149.753906 L 759.335938 347.410156 C 759.335938 356.550781 751.925781 363.957031 742.792969 363.957031 L 545.136719 363.957031 C 535.992188 363.957031 528.585938 356.550781 528.585938 347.410156 L 528.585938 149.753906 C 528.585938 140.621094 535.992188 133.210938 545.136719 133.210938 L 742.789062 133.210938 C 751.925781 133.210938 759.335938 140.621094 759.335938 149.753906 Z M 905.003906 638.554688 L 381.15625 638.554688 L 381.15625 648.449219 L 905.003906 648.449219 Z M 905.003906 638.554688 " fill-opacity="1" fill-rule="nonzero"/></g><g clip-path="url(#8c210cee31)"><path fill="#000000" d="M 1020.671875 390.390625 L 1020.671875 501.722656 C 1020.671875 507.105469 1016.304688 511.472656 1010.921875 511.472656 L 899.398438 511.472656 C 894.015625 511.472656 889.652344 507.105469 889.652344 501.722656 L 889.652344 365.089844 C 889.652344 359.707031 894.015625 355.34375 899.398438 355.34375 L 988.335938 355.34375 Z M 788.074219 353.699219 L 699.136719 353.699219 C 693.753906 353.699219 689.390625 358.0625 689.390625 363.445312 L 689.390625 500.078125 C 689.390625 505.460938 693.753906 509.824219 699.136719 509.824219 L 810.660156 509.824219 C 816.042969 509.824219 820.40625 505.460938 820.40625 500.078125 L 820.40625 388.746094 Z M 884.027344 155.457031 L 854.683594 155.457031 C 841.4375 155.457031 830.703125 166.195312 830.703125 179.441406 L 830.703125 187.003906 C 830.703125 200.25 841.4375 210.988281 854.683594 210.988281 L 881.070312 210.988281 L 887.640625 231.691406 L 893.785156 208.910156 C 902.167969 205.171875 908.007812 196.773438 908.007812 187.003906 L 908.007812 179.4375 C 908.007812 166.195312 897.273438 155.457031 884.027344 155.457031 Z M 564.785156 393.628906 L 525.980469 393.628906 C 509.019531 393.628906 495.269531 407.378906 495.269531 424.34375 L 495.269531 440.242188 C 495.269531 457.207031 509.019531 470.957031 525.980469 470.957031 L 570.105469 470.957031 L 570.105469 398.949219 C 570.105469 396.011719 567.722656 393.628906 564.785156 393.628906 Z M 564.785156 393.628906 " fill-opacity="1" fill-rule="nonzero"/></g><path fill="#f9b9ac" d="M 540.972656 612.671875 C 544.082031 613.378906 546.910156 613.835938 549.433594 614.136719 C 560.414062 615.445312 572.007812 616.648438 574.007812 622.683594 C 574.660156 624.667969 574.078125 626.660156 573.507812 628 C 562.660156 628.066406 551.816406 628.132812 540.972656 628.199219 C 540.972656 623.023438 540.972656 617.847656 540.972656 612.671875 Z M 565.082031 410.5 L 556.710938 410.5 C 554.140625 410.5 551.636719 411.320312 549.589844 413.023438 C 549.195312 413.402344 548.800781 413.78125 548.40625 414.222656 C 545.503906 417.699219 545.371094 422.246094 545.636719 427.042969 C 545.964844 433.171875 546.824219 439.738281 543.195312 444.917969 C 541.945312 446.75 539.636719 449.085938 535.222656 450.539062 C 535.15625 445.613281 531.53125 441.632812 527.046875 441.570312 C 522.5 441.441406 518.542969 445.484375 518.542969 450.539062 L 518.542969 497.652344 C 525.269531 502.210938 531.992188 506.769531 538.71875 511.332031 C 545.527344 506.769531 552.339844 502.210938 559.148438 497.652344 C 559.148438 490.34375 559.148438 483.042969 559.148438 475.738281 L 559.480469 475.738281 C 567.453125 475.738281 573.914062 468.726562 573.914062 460.136719 L 573.914062 419.972656 C 573.914062 414.730469 569.960938 410.5 565.082031 410.5 Z M 565.082031 410.5 " fill-opacity="1" fill-rule="nonzero"/><path fill="#000000" d="M 540.972656 638.554688 C 540.972656 627.949219 540.972656 617.339844 540.972656 606.734375 L 528.378906 606.734375 C 527.488281 617.339844 526.59375 627.945312 525.703125 638.554688 C 530.792969 638.554688 535.878906 638.554688 540.972656 638.554688 Z M 538.71875 511.332031 C 534.492188 519.605469 530.265625 527.882812 526.039062 536.15625 C 520.199219 522.859375 514.359375 509.566406 508.519531 496.269531 L 518.542969 486.449219 Z M 538.71875 511.332031 L 559.148438 486.449219 L 570.105469 496.269531 L 551.488281 534.949219 Z M 538.71875 511.332031 " fill-opacity="1" fill-rule="nonzero"/><path fill="#000000" d="M 656.101562 214.519531 C 656.101562 222.503906 649.628906 228.972656 641.644531 228.972656 C 633.660156 228.972656 627.1875 222.503906 627.1875 214.519531 C 627.1875 206.535156 633.660156 200.0625 641.644531 200.0625 C 649.628906 200.0625 656.101562 206.535156 656.101562 214.519531 Z M 665.851562 252.734375 L 665.851562 246.882812 C 665.851562 238.257812 658.863281 231.269531 650.238281 231.269531 L 633.050781 231.269531 C 624.425781 231.269531 617.4375 238.257812 617.4375 246.882812 L 617.4375 252.734375 C 617.4375 256.597656 620.570312 259.730469 624.4375 259.730469 L 658.851562 259.730469 C 662.71875 259.730469 665.851562 256.597656 665.851562 252.734375 Z M 665.851562 252.734375 " fill-opacity="1" fill-rule="nonzero"/><path fill="#ffde59" d="M 584.167969 191.5 C 583.820312 191.082031 583.871094 190.460938 584.289062 190.109375 C 586.324219 188.390625 588.464844 186.742188 590.644531 185.210938 C 591.089844 184.894531 591.703125 185 592.019531 185.449219 C 592.332031 185.894531 592.226562 186.507812 591.78125 186.824219 C 589.644531 188.324219 587.554688 189.9375 585.558594 191.617188 C 585.375 191.773438 585.148438 191.847656 584.925781 191.847656 C 584.644531 191.847656 584.363281 191.730469 584.167969 191.5 Z M 554.859375 276.261719 C 554.40625 273.695312 554.0625 271.074219 553.835938 268.476562 C 553.789062 267.929688 553.3125 267.527344 552.765625 267.578125 C 552.222656 267.625 551.824219 268.105469 551.871094 268.648438 C 552.101562 271.304688 552.453125 273.980469 552.914062 276.601562 C 553 277.082031 553.417969 277.417969 553.886719 277.417969 C 553.941406 277.417969 554 277.414062 554.058594 277.402344 C 554.59375 277.308594 554.953125 276.796875 554.859375 276.261719 Z M 597.898438 182.71875 C 598.066406 182.71875 598.234375 182.675781 598.394531 182.585938 C 600.648438 181.277344 602.988281 180.050781 605.347656 178.945312 C 605.84375 178.714844 606.054688 178.125 605.824219 177.632812 C 605.589844 177.140625 605.007812 176.929688 604.511719 177.160156 C 602.097656 178.289062 599.707031 179.542969 597.402344 180.878906 C 596.929688 181.152344 596.769531 181.757812 597.042969 182.226562 C 597.226562 182.542969 597.558594 182.71875 597.898438 182.71875 Z M 564.128906 215.957031 C 564.285156 216.046875 564.453125 216.089844 564.621094 216.089844 C 564.964844 216.089844 565.292969 215.910156 565.476562 215.59375 C 566.777344 213.339844 568.199219 211.109375 569.695312 208.964844 C 570.007812 208.519531 569.898438 207.90625 569.453125 207.59375 C 569.003906 207.28125 568.390625 207.390625 568.078125 207.835938 C 566.546875 210.023438 565.097656 212.304688 563.769531 214.609375 C 563.496094 215.082031 563.660156 215.683594 564.128906 215.957031 Z M 553.679688 245.792969 C 553.738281 245.804688 553.792969 245.808594 553.851562 245.808594 C 554.320312 245.808594 554.738281 245.472656 554.820312 244.992188 C 555.269531 242.421875 555.835938 239.839844 556.503906 237.320312 C 556.644531 236.792969 556.332031 236.253906 555.804688 236.113281 C 555.28125 235.972656 554.738281 236.285156 554.597656 236.8125 C 553.914062 239.390625 553.335938 242.027344 552.878906 244.652344 C 552.785156 245.191406 553.144531 245.699219 553.679688 245.792969 Z M 553.488281 260.628906 L 553.488281 260.519531 C 553.488281 257.9375 553.597656 255.335938 553.816406 252.78125 C 553.863281 252.238281 553.460938 251.761719 552.917969 251.714844 C 552.378906 251.667969 551.898438 252.070312 551.851562 252.613281 C 551.628906 255.222656 551.515625 257.882812 551.515625 260.519531 L 551.515625 260.628906 C 551.515625 261.171875 551.960938 261.613281 552.503906 261.613281 C 553.046875 261.613281 553.488281 261.171875 553.488281 260.628906 Z M 612.257812 175.984375 C 612.367188 175.984375 612.484375 175.964844 612.59375 175.925781 C 615.046875 175.027344 617.566406 174.230469 620.082031 173.554688 C 620.609375 173.414062 620.917969 172.871094 620.777344 172.34375 C 620.636719 171.820312 620.097656 171.507812 619.570312 171.648438 C 616.996094 172.339844 614.421875 173.15625 611.917969 174.074219 C 611.40625 174.261719 611.140625 174.824219 611.328125 175.339844 C 611.476562 175.738281 611.855469 175.984375 612.257812 175.984375 Z M 557.589844 230.417969 C 557.699219 230.460938 557.816406 230.480469 557.925781 230.480469 C 558.328125 230.480469 558.710938 230.230469 558.855469 229.828125 C 559.742188 227.378906 560.75 224.933594 561.855469 222.566406 C 562.082031 222.074219 561.871094 221.488281 561.375 221.257812 C 560.882812 221.027344 560.296875 221.238281 560.066406 221.734375 C 558.9375 224.15625 557.90625 226.652344 557 229.15625 C 556.8125 229.667969 557.078125 230.234375 557.589844 230.417969 Z M 573.71875 203.082031 C 574 203.082031 574.28125 202.964844 574.472656 202.730469 C 576.148438 200.730469 577.933594 198.78125 579.777344 196.933594 C 580.160156 196.546875 580.160156 195.925781 579.773438 195.539062 C 579.386719 195.152344 578.761719 195.15625 578.378906 195.542969 C 576.496094 197.429688 574.671875 199.421875 572.960938 201.464844 C 572.613281 201.882812 572.667969 202.503906 573.085938 202.855469 C 573.269531 203.007812 573.496094 203.082031 573.71875 203.082031 Z M 717.207031 208.714844 C 717.398438 208.988281 717.707031 209.132812 718.015625 209.132812 C 718.210938 209.132812 718.410156 209.074219 718.582031 208.953125 C 719.027344 208.640625 719.132812 208.027344 718.820312 207.578125 C 717.285156 205.402344 715.636719 203.265625 713.917969 201.226562 C 713.566406 200.808594 712.945312 200.757812 712.527344 201.109375 C 712.113281 201.460938 712.058594 202.082031 712.410156 202.5 C 714.09375 204.492188 715.707031 206.585938 717.207031 208.714844 Z M 725.09375 222.28125 C 725.261719 222.640625 725.617188 222.847656 725.988281 222.847656 C 726.128906 222.847656 726.269531 222.820312 726.40625 222.753906 C 726.898438 222.523438 727.109375 221.9375 726.878906 221.445312 C 725.746094 219.03125 724.492188 216.640625 723.152344 214.335938 C 722.878906 213.867188 722.277344 213.707031 721.804688 213.980469 C 721.332031 214.253906 721.175781 214.859375 721.449219 215.328125 C 722.757812 217.582031 723.984375 219.921875 725.09375 222.28125 Z M 707.089844 196.71875 C 707.28125 196.910156 707.535156 197.007812 707.785156 197.007812 C 708.039062 197.007812 708.292969 196.910156 708.484375 196.714844 C 708.867188 196.328125 708.867188 195.703125 708.484375 195.320312 C 706.59375 193.4375 704.597656 191.617188 702.554688 189.90625 C 702.136719 189.558594 701.515625 189.613281 701.164062 190.03125 C 700.816406 190.449219 700.871094 191.070312 701.289062 191.421875 C 703.289062 193.09375 705.242188 194.878906 707.089844 196.71875 Z M 732.203125 244.675781 C 732.65625 247.242188 733.003906 249.863281 733.234375 252.460938 C 733.28125 252.972656 733.710938 253.359375 734.214844 253.359375 C 734.246094 253.359375 734.273438 253.359375 734.304688 253.355469 C 734.847656 253.308594 735.246094 252.828125 735.199219 252.285156 C 734.964844 249.628906 734.609375 246.953125 734.144531 244.332031 C 734.046875 243.792969 733.535156 243.4375 733 243.53125 C 732.464844 243.628906 732.105469 244.140625 732.203125 244.675781 Z M 659.015625 171.792969 C 661.585938 172.238281 664.167969 172.804688 666.6875 173.472656 C 666.773438 173.496094 666.859375 173.503906 666.941406 173.503906 C 667.378906 173.503906 667.777344 173.210938 667.894531 172.769531 C 668.035156 172.246094 667.722656 171.703125 667.195312 171.566406 C 664.617188 170.882812 661.980469 170.304688 659.355469 169.851562 C 658.816406 169.757812 658.304688 170.117188 658.214844 170.65625 C 658.121094 171.191406 658.480469 171.699219 659.015625 171.792969 Z M 627.574219 171.863281 C 627.632812 171.863281 627.691406 171.859375 627.746094 171.847656 C 630.3125 171.394531 632.929688 171.050781 635.53125 170.820312 C 636.074219 170.773438 636.476562 170.292969 636.429688 169.75 C 636.382812 169.207031 635.910156 168.808594 635.359375 168.855469 C 632.699219 169.089844 630.023438 169.441406 627.402344 169.90625 C 626.867188 170 626.507812 170.511719 626.605469 171.046875 C 626.6875 171.527344 627.105469 171.863281 627.574219 171.863281 Z M 643.378906 170.46875 L 643.539062 170.46875 C 646.101562 170.46875 648.6875 170.578125 651.226562 170.792969 C 651.253906 170.792969 651.28125 170.796875 651.3125 170.796875 C 651.820312 170.796875 652.25 170.40625 652.292969 169.894531 C 652.339844 169.351562 651.9375 168.871094 651.394531 168.828125 C 648.800781 168.609375 646.15625 168.496094 643.535156 168.496094 L 643.378906 168.496094 C 642.832031 168.496094 642.390625 168.9375 642.390625 169.484375 C 642.390625 170.027344 642.832031 170.46875 643.378906 170.46875 Z M 674.183594 175.816406 C 676.632812 176.703125 679.078125 177.710938 681.445312 178.8125 C 681.578125 178.875 681.722656 178.90625 681.859375 178.90625 C 682.234375 178.90625 682.589844 178.695312 682.757812 178.332031 C 682.984375 177.839844 682.773438 177.253906 682.277344 177.023438 C 679.859375 175.898438 677.359375 174.867188 674.855469 173.960938 C 674.34375 173.777344 673.777344 174.039062 673.589844 174.554688 C 673.40625 175.066406 673.671875 175.632812 674.183594 175.816406 Z M 688.421875 182.433594 C 690.679688 183.730469 692.910156 185.152344 695.050781 186.648438 C 695.222656 186.765625 695.417969 186.824219 695.613281 186.824219 C 695.925781 186.824219 696.230469 186.675781 696.425781 186.402344 C 696.734375 185.957031 696.625 185.34375 696.179688 185.03125 C 693.992188 183.5 691.714844 182.050781 689.40625 180.722656 C 688.933594 180.453125 688.328125 180.613281 688.058594 181.085938 C 687.785156 181.558594 687.949219 182.160156 688.421875 182.433594 Z M 643.539062 350.570312 C 640.941406 350.570312 638.320312 350.460938 635.746094 350.238281 C 635.214844 350.195312 634.726562 350.59375 634.679688 351.136719 C 634.632812 351.679688 635.035156 352.15625 635.578125 352.203125 C 638.210938 352.429688 640.886719 352.542969 643.539062 352.542969 L 643.59375 352.542969 C 644.140625 352.542969 644.554688 352.101562 644.554688 351.558594 C 644.554688 351.011719 644.082031 350.570312 643.539062 350.570312 Z M 712.539062 318.390625 C 710.859375 320.390625 709.074219 322.339844 707.230469 324.183594 C 706.84375 324.570312 706.84375 325.191406 707.230469 325.578125 C 707.421875 325.769531 707.675781 325.867188 707.925781 325.867188 C 708.179688 325.867188 708.433594 325.769531 708.625 325.578125 C 710.507812 323.695312 712.332031 321.703125 714.046875 319.660156 C 714.398438 319.242188 714.34375 318.621094 713.925781 318.269531 C 713.507812 317.921875 712.886719 317.976562 712.539062 318.390625 Z M 729.453125 290.722656 C 728.941406 290.539062 728.375 290.800781 728.1875 291.3125 C 727.300781 293.757812 726.285156 296.203125 725.179688 298.570312 C 724.949219 299.066406 725.164062 299.652344 725.65625 299.882812 C 725.792969 299.945312 725.933594 299.976562 726.074219 299.976562 C 726.445312 299.976562 726.800781 299.765625 726.96875 299.40625 C 728.097656 296.984375 729.132812 294.488281 730.042969 291.988281 C 730.230469 291.476562 729.964844 290.910156 729.453125 290.722656 Z M 722.894531 305.179688 C 722.425781 304.90625 721.820312 305.066406 721.546875 305.539062 C 720.242188 307.792969 718.824219 310.023438 717.320312 312.160156 C 717.007812 312.609375 717.117188 313.222656 717.5625 313.535156 C 717.734375 313.65625 717.933594 313.714844 718.128906 313.714844 C 718.441406 313.714844 718.746094 313.566406 718.9375 313.292969 C 720.46875 311.109375 721.921875 308.832031 723.257812 306.527344 C 723.527344 306.054688 723.367188 305.453125 722.894531 305.179688 Z M 688.59375 338.507812 C 686.335938 339.816406 683.996094 341.039062 681.632812 342.140625 C 681.140625 342.371094 680.929688 342.960938 681.160156 343.453125 C 681.328125 343.8125 681.683594 344.019531 682.054688 344.019531 C 682.191406 344.019531 682.335938 343.992188 682.46875 343.929688 C 684.882812 342.800781 687.277344 341.550781 689.582031 340.214844 C 690.054688 339.941406 690.214844 339.335938 689.941406 338.867188 C 689.671875 338.394531 689.066406 338.238281 688.59375 338.507812 Z M 701.441406 329.492188 C 699.445312 331.167969 697.351562 332.78125 695.214844 334.28125 C 694.769531 334.59375 694.660156 335.210938 694.972656 335.65625 C 695.164062 335.925781 695.472656 336.074219 695.78125 336.074219 C 695.976562 336.074219 696.175781 336.015625 696.347656 335.894531 C 698.53125 334.363281 700.671875 332.714844 702.707031 331.003906 C 703.125 330.652344 703.179688 330.03125 702.828125 329.613281 C 702.480469 329.195312 701.859375 329.144531 701.441406 329.492188 Z M 735.5625 260.304688 C 735.5625 259.761719 735.121094 259.320312 734.578125 259.320312 C 734.03125 259.320312 733.589844 259.761719 733.589844 260.304688 L 733.59375 260.519531 C 733.59375 263.140625 733.480469 265.777344 733.253906 268.367188 C 733.207031 268.910156 733.609375 269.386719 734.152344 269.433594 C 734.179688 269.4375 734.210938 269.4375 734.238281 269.4375 C 734.746094 269.4375 735.175781 269.050781 735.21875 268.535156 C 735.449219 265.890625 735.566406 263.195312 735.566406 260.511719 Z M 731.445312 237.742188 C 731.53125 237.742188 731.617188 237.730469 731.703125 237.707031 C 732.226562 237.566406 732.539062 237.023438 732.398438 236.496094 C 731.703125 233.921875 730.886719 231.351562 729.96875 228.847656 C 729.78125 228.335938 729.214844 228.074219 728.703125 228.261719 C 728.191406 228.449219 727.929688 229.015625 728.117188 229.527344 C 729.015625 231.972656 729.8125 234.492188 730.492188 237.011719 C 730.609375 237.449219 731.011719 237.742188 731.445312 237.742188 Z M 733.382812 275.351562 C 732.847656 275.261719 732.332031 275.617188 732.238281 276.15625 C 731.789062 278.71875 731.222656 281.300781 730.546875 283.824219 C 730.40625 284.351562 730.71875 284.890625 731.246094 285.03125 C 731.332031 285.054688 731.417969 285.066406 731.5 285.066406 C 731.9375 285.066406 732.335938 284.773438 732.453125 284.332031 C 733.140625 281.753906 733.722656 279.117188 734.183594 276.496094 C 734.277344 275.957031 733.917969 275.445312 733.382812 275.351562 Z M 627.960938 349.230469 C 625.386719 348.78125 622.808594 348.214844 620.289062 347.542969 C 619.761719 347.402344 619.222656 347.714844 619.082031 348.242188 C 618.941406 348.765625 619.253906 349.308594 619.78125 349.449219 C 622.351562 350.132812 624.992188 350.714844 627.617188 351.171875 C 627.675781 351.183594 627.734375 351.1875 627.789062 351.1875 C 628.261719 351.1875 628.675781 350.847656 628.761719 350.371094 C 628.855469 349.832031 628.496094 349.324219 627.960938 349.230469 Z M 569.808594 312.238281 C 569.496094 311.792969 568.878906 311.683594 568.4375 312 C 567.992188 312.3125 567.882812 312.925781 568.195312 313.375 C 569.726562 315.554688 571.375 317.695312 573.089844 319.734375 C 573.285156 319.964844 573.566406 320.085938 573.847656 320.085938 C 574.070312 320.085938 574.296875 320.007812 574.480469 319.851562 C 574.898438 319.5 574.953125 318.878906 574.601562 318.464844 C 572.921875 316.464844 571.3125 314.371094 569.808594 312.238281 Z M 598.570312 338.554688 C 596.308594 337.25 594.082031 335.832031 591.941406 334.335938 C 591.496094 334.023438 590.882812 334.128906 590.570312 334.578125 C 590.257812 335.023438 590.363281 335.636719 590.8125 335.949219 C 592.996094 337.480469 595.273438 338.929688 597.582031 340.265625 C 597.738281 340.355469 597.90625 340.398438 598.074219 340.398438 C 598.414062 340.398438 598.746094 340.21875 598.929688 339.902344 C 599.203125 339.429688 599.039062 338.828125 598.570312 338.554688 Z M 579.914062 324.25 C 579.53125 323.863281 578.90625 323.863281 578.519531 324.25 C 578.136719 324.632812 578.136719 325.257812 578.523438 325.644531 C 580.40625 327.527344 582.398438 329.351562 584.441406 331.0625 C 584.625 331.21875 584.851562 331.292969 585.074219 331.292969 C 585.355469 331.292969 585.636719 331.175781 585.832031 330.941406 C 586.179688 330.523438 586.125 329.902344 585.710938 329.554688 C 583.710938 327.875 581.761719 326.089844 579.914062 324.25 Z M 561.941406 298.664062 C 561.710938 298.167969 561.125 297.957031 560.632812 298.1875 C 560.136719 298.417969 559.925781 299.007812 560.15625 299.5 C 561.285156 301.90625 562.535156 304.300781 563.875 306.609375 C 564.058594 306.925781 564.386719 307.101562 564.726562 307.101562 C 564.894531 307.101562 565.066406 307.058594 565.222656 306.96875 C 565.691406 306.695312 565.851562 306.09375 565.582031 305.621094 C 564.269531 303.363281 563.046875 301.019531 561.941406 298.664062 Z M 659.226562 349.210938 C 656.664062 349.660156 654.046875 350.003906 651.441406 350.230469 C 650.898438 350.277344 650.496094 350.757812 650.542969 351.296875 C 650.585938 351.8125 651.019531 352.199219 651.523438 352.199219 C 651.554688 352.199219 651.582031 352.199219 651.609375 352.195312 C 654.273438 351.960938 656.949219 351.613281 659.566406 351.152344 C 660.105469 351.058594 660.464844 350.546875 660.367188 350.011719 C 660.277344 349.476562 659.769531 349.117188 659.226562 349.210938 Z M 674.382812 345.152344 C 671.929688 346.046875 669.410156 346.839844 666.894531 347.515625 C 666.367188 347.65625 666.054688 348.195312 666.195312 348.722656 C 666.316406 349.164062 666.714844 349.453125 667.148438 349.453125 C 667.234375 349.453125 667.320312 349.441406 667.40625 349.417969 C 669.976562 348.730469 672.554688 347.917969 675.058594 347.003906 C 675.570312 346.816406 675.835938 346.25 675.648438 345.738281 C 675.460938 345.230469 674.894531 344.964844 674.382812 345.152344 Z M 556.558594 283.925781 C 556.417969 283.402344 555.875 283.089844 555.351562 283.230469 C 554.824219 283.371094 554.515625 283.914062 554.652344 284.4375 C 555.34375 287.015625 556.160156 289.589844 557.074219 292.09375 C 557.21875 292.492188 557.597656 292.742188 558 292.742188 C 558.113281 292.742188 558.226562 292.722656 558.339844 292.679688 C 558.851562 292.492188 559.113281 291.925781 558.925781 291.414062 C 558.03125 288.964844 557.238281 286.445312 556.558594 283.925781 Z M 612.796875 345.1875 C 610.347656 344.300781 607.902344 343.289062 605.535156 342.183594 C 605.042969 341.953125 604.457031 342.167969 604.226562 342.660156 C 603.996094 343.15625 604.210938 343.742188 604.703125 343.972656 C 607.121094 345.101562 609.621094 346.132812 612.125 347.042969 C 612.234375 347.082031 612.347656 347.101562 612.460938 347.101562 C 612.863281 347.101562 613.242188 346.855469 613.386719 346.453125 C 613.574219 345.941406 613.308594 345.375 612.796875 345.1875 Z M 607.6875 243.476562 C 607.6875 251.460938 601.214844 257.933594 593.230469 257.933594 C 585.246094 257.933594 578.777344 251.460938 578.777344 243.476562 C 578.777344 235.492188 585.246094 229.019531 593.230469 229.019531 C 601.214844 229.019531 607.6875 235.492188 607.6875 243.476562 Z M 617.4375 281.691406 L 617.4375 275.835938 C 617.4375 267.214844 610.449219 260.226562 601.824219 260.226562 L 584.636719 260.226562 C 576.015625 260.226562 569.023438 267.214844 569.023438 275.835938 L 569.023438 281.691406 C 569.023438 285.554688 572.15625 288.691406 576.023438 288.691406 L 610.4375 288.691406 C 614.304688 288.691406 617.4375 285.554688 617.4375 281.691406 Z M 706.824219 243.476562 C 706.824219 251.460938 700.355469 257.933594 692.371094 257.933594 C 684.386719 257.933594 677.914062 251.460938 677.914062 243.476562 C 677.914062 235.492188 684.386719 229.019531 692.371094 229.019531 C 700.351562 229.019531 706.824219 235.492188 706.824219 243.476562 Z M 716.578125 281.691406 L 716.578125 275.835938 C 716.578125 267.214844 709.585938 260.226562 700.964844 260.226562 L 683.773438 260.226562 C 675.152344 260.226562 668.164062 267.214844 668.164062 275.835938 L 668.164062 281.691406 C 668.164062 285.554688 671.296875 288.691406 675.160156 288.691406 L 709.578125 288.691406 C 713.441406 288.691406 716.578125 285.554688 716.578125 281.691406 Z M 657.253906 280.324219 C 657.253906 288.308594 650.78125 294.78125 642.800781 294.78125 C 634.816406 294.78125 628.34375 288.308594 628.34375 280.324219 C 628.34375 272.339844 634.816406 265.867188 642.800781 265.867188 C 650.78125 265.867188 657.253906 272.339844 657.253906 280.324219 Z M 667.007812 318.539062 L 667.007812 312.683594 C 667.007812 304.0625 660.015625 297.074219 651.394531 297.074219 L 634.203125 297.074219 C 625.582031 297.074219 618.59375 304.0625 618.59375 312.683594 L 618.59375 318.539062 C 618.59375 322.402344 621.726562 325.539062 625.59375 325.539062 L 660.007812 325.539062 C 663.875 325.539062 667.007812 322.402344 667.007812 318.539062 Z M 667.007812 318.539062 " fill-opacity="1" fill-rule="nonzero"/><path fill="#daa520" d="M 826.125 219.949219 L 855.464844 219.949219 C 868.710938 219.949219 879.449219 230.683594 879.449219 243.929688 L 879.449219 251.496094 C 879.449219 264.738281 868.710938 275.476562 855.464844 275.476562 L 829.082031 275.476562 L 822.507812 296.183594 L 816.363281 273.398438 C 807.984375 269.660156 802.140625 261.261719 802.140625 251.492188 L 802.140625 243.929688 C 802.140625 230.683594 812.878906 219.949219 826.125 219.949219 Z M 886.054688 332.964844 L 797.117188 332.964844 C 791.734375 332.964844 787.371094 337.328125 787.371094 342.710938 L 787.371094 479.34375 C 787.371094 484.726562 791.734375 489.089844 797.117188 489.089844 L 908.640625 489.089844 C 914.023438 489.089844 918.386719 484.726562 918.386719 479.34375 L 918.386719 368.011719 Z M 886.054688 332.964844 " fill-opacity="1" fill-rule="nonzero"/><path fill="#000000" d="M 662.007812 182.1875 C 636.328125 171.992188 607.183594 184.59375 596.988281 210.273438 C 586.792969 235.953125 599.390625 265.101562 625.074219 275.296875 C 648.832031 284.722656 675.667969 274.621094 687.59375 252.691406 L 756.558594 280.105469 L 760.980469 268.945312 L 691.921875 241.535156 C 698.367188 217.394531 685.765625 191.613281 662.007812 182.1875 Z M 681.628906 243.84375 C 673.261719 264.90625 649.503906 275.105469 628.4375 266.832031 C 607.375 258.460938 597.179688 234.703125 605.453125 213.640625 C 613.820312 192.574219 637.578125 182.378906 658.640625 190.652344 C 679.707031 199.023438 689.902344 222.875 681.628906 243.84375 Z M 859.277344 242.5625 C 862.066406 242.5625 864.324219 244.820312 864.324219 247.609375 C 864.324219 250.394531 862.066406 252.65625 859.277344 252.65625 C 856.492188 252.65625 854.230469 250.394531 854.230469 247.609375 C 854.230469 244.820312 856.492188 242.5625 859.277344 242.5625 Z M 840.792969 242.5625 C 843.582031 242.5625 845.84375 244.820312 845.84375 247.609375 C 845.84375 250.394531 843.582031 252.65625 840.792969 252.65625 C 838.007812 252.65625 835.746094 250.394531 835.746094 247.609375 C 835.746094 244.820312 838.007812 242.5625 840.792969 242.5625 Z M 822.3125 242.5625 C 825.097656 242.5625 827.359375 244.820312 827.359375 247.609375 C 827.359375 250.394531 825.097656 252.65625 822.3125 252.65625 C 819.523438 252.65625 817.265625 250.394531 817.265625 247.609375 C 817.265625 244.820312 819.523438 242.5625 822.3125 242.5625 Z M 822.3125 242.5625 " fill-opacity="1" fill-rule="nonzero"/><g clip-path="url(#2685400719)"><path fill="#ffde59" d="M 1020.671875 390.390625 L 997.175781 390.230469 C 992.285156 390.195312 988.339844 386.222656 988.339844 381.332031 L 988.339844 355.34375 Z M 937.917969 370.082031 C 933.988281 370.082031 930.800781 373.269531 930.800781 377.199219 C 930.800781 381.132812 933.988281 384.320312 937.917969 384.320312 C 941.851562 384.320312 945.039062 381.132812 945.039062 377.199219 C 945.039062 373.269531 941.851562 370.082031 937.917969 370.082031 Z M 946.394531 399.46875 L 929.445312 399.46875 C 927.539062 399.46875 925.996094 397.925781 925.996094 396.023438 L 925.996094 393.140625 C 925.996094 388.894531 929.4375 385.453125 933.683594 385.453125 L 942.152344 385.453125 C 946.398438 385.453125 949.839844 388.894531 949.839844 393.140625 L 949.839844 396.023438 C 949.839844 397.925781 948.296875 399.46875 946.394531 399.46875 Z M 988.175781 421.667969 L 928.816406 421.667969 C 927.363281 421.667969 926.1875 420.492188 926.1875 419.042969 L 926.1875 417.679688 C 926.1875 416.230469 927.363281 415.054688 928.816406 415.054688 L 988.175781 415.054688 C 989.625 415.054688 990.804688 416.230469 990.804688 417.679688 L 990.804688 419.042969 C 990.804688 420.492188 989.625 421.667969 988.175781 421.667969 Z M 988.175781 435.359375 L 928.816406 435.359375 C 927.363281 435.359375 926.1875 434.183594 926.1875 432.730469 L 926.1875 431.371094 C 926.1875 429.921875 927.363281 428.742188 928.816406 428.742188 L 988.175781 428.742188 C 989.625 428.742188 990.804688 429.921875 990.804688 431.371094 L 990.804688 432.730469 C 990.804688 434.183594 989.625 435.359375 988.175781 435.359375 Z M 988.175781 449.050781 L 928.816406 449.050781 C 927.363281 449.050781 926.1875 447.871094 926.1875 446.421875 L 926.1875 445.0625 C 926.1875 443.609375 927.363281 442.433594 928.816406 442.433594 L 988.175781 442.433594 C 989.625 442.433594 990.804688 443.609375 990.804688 445.0625 L 990.804688 446.421875 C 990.804688 447.871094 989.625 449.050781 988.175781 449.050781 Z M 970.78125 462.738281 L 928.816406 462.738281 C 927.363281 462.738281 926.1875 461.5625 926.1875 460.109375 L 926.1875 458.75 C 926.1875 457.300781 927.363281 456.121094 928.816406 456.121094 L 970.78125 456.121094 C 972.230469 456.121094 973.40625 457.300781 973.40625 458.75 L 973.40625 460.109375 C 973.40625 461.5625 972.230469 462.738281 970.78125 462.738281 Z M 970.78125 476.429688 L 928.816406 476.429688 C 927.363281 476.429688 926.1875 475.25 926.1875 473.800781 L 926.1875 472.441406 C 926.1875 470.988281 927.363281 469.8125 928.816406 469.8125 L 970.78125 469.8125 C 972.230469 469.8125 973.40625 470.988281 973.40625 472.441406 L 973.40625 473.800781 C 973.40625 475.253906 972.230469 476.429688 970.78125 476.429688 Z M 970.78125 490.117188 L 928.816406 490.117188 C 927.363281 490.117188 926.1875 488.941406 926.1875 487.488281 L 926.1875 486.128906 C 926.1875 484.679688 927.363281 483.503906 928.816406 483.503906 L 970.78125 483.503906 C 972.230469 483.503906 973.40625 484.679688 973.40625 486.128906 L 973.40625 487.488281 C 973.40625 488.941406 972.230469 490.117188 970.78125 490.117188 Z M 718.289062 370.082031 C 714.355469 370.082031 711.171875 373.269531 711.171875 377.199219 C 711.171875 381.132812 714.355469 384.320312 718.289062 384.320312 C 722.222656 384.320312 725.410156 381.132812 725.410156 377.199219 C 725.410156 373.269531 722.222656 370.082031 718.289062 370.082031 Z M 726.765625 399.46875 L 709.816406 399.46875 C 707.910156 399.46875 706.367188 397.925781 706.367188 396.023438 L 706.367188 393.140625 C 706.367188 388.894531 709.8125 385.453125 714.054688 385.453125 L 722.523438 385.453125 C 726.769531 385.453125 730.210938 388.894531 730.210938 393.140625 L 730.210938 396.023438 C 730.210938 397.925781 728.667969 399.46875 726.765625 399.46875 Z M 768.546875 421.667969 L 709.1875 421.667969 C 707.734375 421.667969 706.558594 420.492188 706.558594 419.042969 L 706.558594 417.679688 C 706.558594 416.230469 707.734375 415.054688 709.1875 415.054688 L 768.546875 415.054688 C 769.996094 415.054688 771.171875 416.230469 771.171875 417.679688 L 771.171875 419.042969 C 771.175781 420.492188 769.996094 421.667969 768.546875 421.667969 Z M 768.546875 435.359375 L 709.1875 435.359375 C 707.734375 435.359375 706.558594 434.183594 706.558594 432.730469 L 706.558594 431.371094 C 706.558594 429.921875 707.734375 428.742188 709.1875 428.742188 L 768.546875 428.742188 C 769.996094 428.742188 771.171875 429.921875 771.171875 431.371094 L 771.171875 432.730469 C 771.175781 434.183594 769.996094 435.359375 768.546875 435.359375 Z M 768.546875 449.050781 L 709.1875 449.050781 C 707.734375 449.050781 706.558594 447.871094 706.558594 446.421875 L 706.558594 445.0625 C 706.558594 443.609375 707.734375 442.433594 709.1875 442.433594 L 768.546875 442.433594 C 769.996094 442.433594 771.171875 443.609375 771.171875 445.0625 L 771.171875 446.421875 C 771.175781 447.871094 769.996094 449.050781 768.546875 449.050781 Z M 751.152344 462.738281 L 709.1875 462.738281 C 707.738281 462.738281 706.558594 461.5625 706.558594 460.109375 L 706.558594 458.75 C 706.558594 457.300781 707.738281 456.121094 709.1875 456.121094 L 751.152344 456.121094 C 752.601562 456.121094 753.777344 457.300781 753.777344 458.75 L 753.777344 460.109375 C 753.777344 461.5625 752.601562 462.738281 751.152344 462.738281 Z M 751.152344 476.429688 L 709.1875 476.429688 C 707.738281 476.429688 706.558594 475.25 706.558594 473.800781 L 706.558594 472.441406 C 706.558594 470.988281 707.738281 469.8125 709.1875 469.8125 L 751.152344 469.8125 C 752.601562 469.8125 753.777344 470.988281 753.777344 472.441406 L 753.777344 473.800781 C 753.777344 475.253906 752.601562 476.429688 751.152344 476.429688 Z M 751.152344 490.117188 L 709.1875 490.117188 C 707.738281 490.117188 706.558594 488.941406 706.558594 487.488281 L 706.558594 486.128906 C 706.558594 484.679688 707.738281 483.503906 709.1875 483.503906 L 751.152344 483.503906 C 752.601562 483.503906 753.777344 484.679688 753.777344 486.128906 L 753.777344 487.488281 C 753.777344 488.941406 752.601562 490.117188 751.152344 490.117188 Z M 900.25 396.765625 L 804.5 396.765625 L 804.5 401.632812 L 900.25 401.632812 Z M 900.25 419.242188 L 804.5 419.242188 L 804.5 414.375 L 900.25 414.375 Z M 900.25 437.683594 L 804.5 437.683594 L 804.5 432.816406 L 900.25 432.816406 Z M 812.8125 453.730469 L 814.527344 456.984375 C 814.644531 457.207031 814.875 457.363281 815.136719 457.398438 L 818.972656 457.917969 C 819.640625 458.011719 819.90625 458.777344 819.421875 459.214844 L 816.648438 461.746094 C 816.457031 461.921875 816.371094 462.171875 816.414062 462.417969 L 817.070312 465.996094 C 817.183594 466.617188 816.488281 467.089844 815.894531 466.796875 L 812.460938 465.105469 C 812.226562 464.992188 811.945312 464.992188 811.707031 465.105469 L 808.273438 466.796875 C 807.679688 467.089844 806.984375 466.617188 807.097656 465.996094 L 807.753906 462.417969 C 807.800781 462.171875 807.710938 461.921875 807.519531 461.746094 L 804.746094 459.214844 C 804.261719 458.777344 804.527344 458.011719 805.195312 457.917969 L 809.03125 457.398438 C 809.292969 457.363281 809.523438 457.207031 809.640625 456.984375 L 811.355469 453.730469 C 811.652344 453.164062 812.511719 453.164062 812.8125 453.730469 Z M 831.5 453.730469 L 829.785156 456.984375 C 829.667969 457.207031 829.441406 457.363281 829.175781 457.398438 L 825.339844 457.917969 C 824.671875 458.011719 824.40625 458.777344 824.890625 459.214844 L 827.664062 461.746094 C 827.855469 461.921875 827.945312 462.171875 827.898438 462.417969 L 827.242188 465.996094 C 827.128906 466.617188 827.824219 467.089844 828.417969 466.796875 L 831.851562 465.105469 C 832.085938 464.992188 832.371094 464.992188 832.605469 465.105469 L 836.039062 466.796875 C 836.632812 467.089844 837.328125 466.617188 837.214844 465.996094 L 836.558594 462.417969 C 836.515625 462.171875 836.601562 461.921875 836.792969 461.746094 L 839.570312 459.214844 C 840.050781 458.777344 839.785156 458.011719 839.121094 457.917969 L 835.28125 457.398438 C 835.019531 457.363281 834.789062 457.207031 834.671875 456.984375 L 832.957031 453.730469 C 832.660156 453.164062 831.800781 453.164062 831.5 453.730469 Z M 851.648438 453.730469 L 849.933594 456.984375 C 849.8125 457.207031 849.585938 457.363281 849.320312 457.398438 L 845.484375 457.917969 C 844.820312 458.011719 844.554688 458.777344 845.035156 459.214844 L 847.8125 461.746094 C 848.003906 461.921875 848.089844 462.171875 848.042969 462.417969 L 847.390625 465.996094 C 847.277344 466.617188 847.972656 467.089844 848.566406 466.796875 L 851.996094 465.105469 C 852.234375 464.992188 852.515625 464.992188 852.753906 465.105469 L 856.183594 466.796875 C 856.78125 467.089844 857.476562 466.617188 857.359375 465.996094 L 856.707031 462.417969 C 856.660156 462.171875 856.746094 461.921875 856.9375 461.746094 L 859.714844 459.214844 C 860.195312 458.777344 859.929688 458.011719 859.265625 457.917969 L 855.429688 457.398438 C 855.164062 457.363281 854.9375 457.207031 854.816406 456.984375 L 853.101562 453.730469 C 852.804688 453.164062 851.945312 453.164062 851.648438 453.730469 Z M 871.792969 453.730469 L 870.078125 456.984375 C 869.957031 457.207031 869.730469 457.363281 869.464844 457.398438 L 865.628906 457.917969 C 864.964844 458.011719 864.699219 458.777344 865.179688 459.214844 L 867.957031 461.746094 C 868.148438 461.921875 868.234375 462.171875 868.1875 462.417969 L 867.535156 465.996094 C 867.421875 466.617188 868.117188 467.089844 868.710938 466.796875 L 872.140625 465.105469 C 872.378906 464.992188 872.660156 464.992188 872.898438 465.105469 L 876.328125 466.796875 C 876.925781 467.089844 877.621094 466.617188 877.503906 465.996094 L 876.851562 462.417969 C 876.804688 462.171875 876.890625 461.921875 877.082031 461.746094 L 879.859375 459.214844 C 880.339844 458.777344 880.074219 458.011719 879.410156 457.917969 L 875.574219 457.398438 C 875.308594 457.363281 875.082031 457.207031 874.960938 456.984375 L 873.246094 453.730469 C 872.949219 453.164062 872.089844 453.164062 871.792969 453.730469 Z M 891.9375 453.730469 L 890.222656 456.984375 C 890.105469 457.207031 889.875 457.363281 889.613281 457.398438 L 885.773438 457.917969 C 885.109375 458.011719 884.84375 458.777344 885.324219 459.214844 L 888.101562 461.746094 C 888.292969 461.921875 888.378906 462.171875 888.335938 462.417969 L 887.679688 465.996094 C 887.566406 466.617188 888.261719 467.089844 888.855469 466.796875 L 892.289062 465.105469 C 892.523438 464.992188 892.804688 464.992188 893.042969 465.105469 L 896.472656 466.796875 C 897.070312 467.089844 897.765625 466.617188 897.652344 465.996094 L 896.996094 462.417969 C 896.949219 462.171875 897.039062 461.921875 897.230469 461.746094 L 900.003906 459.214844 C 900.484375 458.777344 900.21875 458.011719 899.554688 457.917969 L 895.71875 457.398438 C 895.457031 457.363281 895.226562 457.207031 895.109375 456.984375 L 893.390625 453.730469 C 893.09375 453.164062 892.234375 453.164062 891.9375 453.730469 Z M 891.9375 453.730469 " fill-opacity="1" fill-rule="nonzero"/></g><g clip-path="url(#f17b439280)"><path fill="#000000" d="M 627.757812 551.148438 L 600.765625 627.699219 L 540.972656 627.699219 L 540.972656 638.554688 L 709.644531 638.554688 L 738.027344 551.148438 Z M 759.335938 149.753906 L 759.335938 155.917969 L 528.585938 155.917969 L 528.585938 149.753906 C 528.585938 140.621094 535.992188 133.210938 545.136719 133.210938 L 742.789062 133.210938 C 751.925781 133.210938 759.335938 140.621094 759.335938 149.753906 Z M 770.601562 270.007812 L 764.253906 285.875 L 700.867188 260.675781 L 707.214844 244.804688 Z M 770.601562 270.007812 " fill-opacity="1" fill-rule="nonzero"/></g><path fill="#000000" d="M 918.386719 368.011719 L 894.890625 367.847656 C 890.003906 367.816406 886.054688 363.839844 886.054688 358.949219 L 886.054688 332.964844 Z M 816.417969 349.070312 C 812.488281 349.070312 809.300781 352.257812 809.300781 356.191406 C 809.300781 360.121094 812.488281 363.308594 816.417969 363.308594 C 820.351562 363.308594 823.539062 360.121094 823.539062 356.191406 C 823.539062 352.257812 820.351562 349.070312 816.417969 349.070312 Z M 824.894531 378.457031 L 807.945312 378.457031 C 806.039062 378.457031 804.5 376.914062 804.5 375.011719 L 804.5 372.128906 C 804.5 367.882812 807.941406 364.441406 812.1875 364.441406 L 820.652344 364.441406 C 824.898438 364.441406 828.339844 367.882812 828.339844 372.128906 L 828.339844 375.011719 C 828.34375 376.914062 826.796875 378.457031 824.894531 378.457031 Z M 864.707031 404.816406 L 862.710938 404.816406 C 860.578125 404.816406 858.851562 403.085938 858.851562 400.957031 L 858.851562 396.316406 C 858.851562 394.1875 860.578125 392.460938 862.710938 392.460938 L 864.707031 392.460938 C 866.835938 392.460938 868.5625 394.1875 868.5625 396.316406 L 868.5625 400.957031 C 868.5625 403.085938 866.835938 404.816406 864.707031 404.816406 Z M 882.40625 418.566406 L 882.40625 413.921875 C 882.40625 411.792969 880.679688 410.066406 878.550781 410.066406 L 876.550781 410.066406 C 874.421875 410.066406 872.695312 411.792969 872.695312 413.921875 L 872.695312 418.566406 C 872.695312 420.695312 874.421875 422.421875 876.550781 422.421875 L 878.550781 422.421875 C 880.679688 422.421875 882.40625 420.695312 882.40625 418.566406 Z M 896.25 437.007812 L 896.25 432.367188 C 896.25 430.238281 894.523438 428.507812 892.394531 428.507812 L 890.394531 428.507812 C 888.265625 428.507812 886.539062 430.238281 886.539062 432.367188 L 886.539062 437.007812 C 886.539062 439.136719 888.265625 440.863281 890.394531 440.863281 L 892.394531 440.863281 C 894.523438 440.863281 896.25 439.140625 896.25 437.007812 Z M 896.25 437.007812 " fill-opacity="1" fill-rule="nonzero"/><path fill="#daa520" d="M 855.917969 183.117188 C 855.917969 185.90625 853.65625 188.164062 850.871094 188.164062 C 848.082031 188.164062 845.824219 185.90625 845.824219 183.117188 C 845.824219 180.332031 848.082031 178.070312 850.871094 178.070312 C 853.65625 178.070312 855.917969 180.332031 855.917969 183.117188 Z M 869.355469 178.070312 C 866.566406 178.070312 864.308594 180.332031 864.308594 183.121094 C 864.308594 185.90625 866.566406 188.167969 869.355469 188.167969 C 872.144531 188.167969 874.402344 185.90625 874.402344 183.121094 C 874.402344 180.332031 872.144531 178.070312 869.355469 178.070312 Z M 887.839844 178.070312 C 885.050781 178.070312 882.792969 180.332031 882.792969 183.121094 C 882.792969 185.90625 885.050781 188.167969 887.839844 188.167969 C 890.625 188.167969 892.886719 185.90625 892.886719 183.121094 C 892.886719 180.332031 890.625 178.070312 887.839844 178.070312 Z M 672.589844 589.339844 C 667.558594 589.339844 663.484375 593.414062 663.484375 598.445312 C 663.484375 603.472656 667.558594 607.546875 672.589844 607.546875 C 677.617188 607.546875 681.691406 603.472656 681.691406 598.445312 C 681.691406 593.414062 677.617188 589.339844 672.589844 589.339844 Z M 934.15625 305.617188 C 935.488281 304.28125 936.347656 302.949219 936.917969 301.710938 C 937.300781 300.851562 938.539062 300.851562 938.917969 301.710938 C 939.492188 302.949219 940.347656 304.28125 941.683594 305.617188 C 943.019531 306.949219 944.449219 307.808594 945.589844 308.378906 C 946.449219 308.761719 946.449219 310 945.589844 310.382812 C 944.351562 310.953125 942.921875 311.808594 941.683594 313.144531 C 940.347656 314.480469 939.492188 315.8125 938.917969 317.050781 C 938.539062 317.910156 937.300781 317.910156 936.917969 317.050781 C 936.347656 315.8125 935.488281 314.476562 934.15625 313.144531 C 932.820312 311.808594 931.390625 310.953125 930.25 310.382812 C 929.390625 310 929.390625 308.761719 930.25 308.378906 C 931.390625 307.808594 932.820312 306.949219 934.15625 305.617188 Z M 632.667969 411.289062 C 634.003906 409.953125 634.859375 408.621094 635.433594 407.382812 C 635.8125 406.527344 637.050781 406.527344 637.433594 407.382812 C 638.003906 408.621094 638.863281 409.957031 640.195312 411.289062 C 641.53125 412.621094 642.960938 413.480469 644.105469 414.054688 C 644.960938 414.433594 644.960938 415.671875 644.105469 416.054688 C 642.863281 416.625 641.4375 417.484375 640.195312 418.816406 C 638.863281 420.152344 638.003906 421.484375 637.433594 422.726562 C 637.050781 423.582031 635.8125 423.582031 635.433594 422.726562 C 634.859375 421.484375 634.003906 420.152344 632.667969 418.816406 C 631.332031 417.484375 629.90625 416.625 628.761719 416.054688 C 627.90625 415.671875 627.90625 414.433594 628.761719 414.054688 C 629.90625 413.480469 631.332031 412.625 632.667969 411.289062 Z M 831.984375 547.054688 C 833.320312 545.71875 834.175781 544.386719 834.746094 543.148438 C 835.128906 542.289062 836.367188 542.289062 836.75 543.148438 C 837.320312 544.386719 838.179688 545.722656 839.511719 547.054688 C 840.847656 548.390625 842.277344 549.246094 843.417969 549.820312 C 844.277344 550.199219 844.277344 551.4375 843.417969 551.820312 C 842.179688 552.390625 840.75 553.25 839.511719 554.582031 C 838.179688 555.917969 837.320312 557.25 836.75 558.488281 C 836.367188 559.347656 835.128906 559.347656 834.746094 558.488281 C 834.175781 557.25 833.320312 555.917969 831.984375 554.582031 C 830.648438 553.25 829.21875 552.390625 828.078125 551.820312 C 827.21875 551.4375 827.21875 550.199219 828.078125 549.820312 C 829.21875 549.246094 830.648438 548.390625 831.984375 547.054688 Z M 786.929688 168.101562 C 788.265625 166.765625 789.121094 165.433594 789.695312 164.195312 C 790.074219 163.335938 791.3125 163.335938 791.695312 164.195312 C 792.265625 165.433594 793.125 166.765625 794.460938 168.101562 C 795.792969 169.433594 797.222656 170.292969 798.367188 170.863281 C 799.222656 171.246094 799.222656 172.484375 798.367188 172.863281 C 797.128906 173.4375 795.699219 174.292969 794.460938 175.628906 C 793.125 176.964844 792.265625 178.296875 791.695312 179.535156 C 791.3125 180.394531 790.074219 180.394531 789.695312 179.535156 C 789.121094 178.296875 788.265625 176.960938 786.929688 175.628906 C 785.597656 174.292969 784.167969 173.4375 783.023438 172.863281 C 782.167969 172.484375 782.167969 171.246094 783.023438 170.863281 C 784.167969 170.292969 785.597656 169.433594 786.929688 168.101562 Z M 550.417969 144.566406 C 550.417969 146.789062 548.613281 148.589844 546.390625 148.589844 C 544.167969 148.589844 542.363281 146.789062 542.363281 144.566406 C 542.363281 142.339844 544.167969 140.539062 546.390625 140.539062 C 548.613281 140.539062 550.417969 142.339844 550.417969 144.566406 Z M 560.429688 140.539062 C 558.203125 140.539062 556.402344 142.339844 556.402344 144.5625 C 556.402344 146.789062 558.203125 148.589844 560.429688 148.589844 C 562.652344 148.589844 564.453125 146.789062 564.453125 144.5625 C 564.453125 142.339844 562.652344 140.539062 560.429688 140.539062 Z M 574.46875 140.539062 C 572.246094 140.539062 570.441406 142.339844 570.441406 144.5625 C 570.441406 146.789062 572.246094 148.589844 574.46875 148.589844 C 576.691406 148.589844 578.492188 146.789062 578.492188 144.5625 C 578.492188 142.339844 576.691406 140.539062 574.46875 140.539062 Z M 574.46875 140.539062 " fill-opacity="1" fill-rule="nonzero"/></svg>