<svg xmlns="http://www.w3.org/2000/svg" xmlns:xlink="http://www.w3.org/1999/xlink" width="500" zoomAndPan="magnify" viewBox="0 0 375 374.999991" height="500" preserveAspectRatio="xMidYMid meet" version="1.0"><defs><g/><clipPath id="35be9e96b6"><path d="M 35 43 L 337 43 L 337 332 L 35 332 Z M 35 43 " clip-rule="nonzero"/></clipPath><clipPath id="8312f2df67"><path d="M 35.921875 89.308594 L 294.019531 43.503906 L 336.984375 285.59375 L 78.886719 331.398438 Z M 35.921875 89.308594 " clip-rule="nonzero"/></clipPath></defs><g clip-path="url(#35be9e96b6)"><g clip-path="url(#8312f2df67)"><path fill="#daa520" d="M 35.921875 89.308594 L 294.085938 43.492188 L 337.050781 285.578125 L 78.886719 331.398438 Z M 35.921875 89.308594 " fill-opacity="1" fill-rule="nonzero"/></g></g><g fill="#fff9f9" fill-opacity="1"><g transform="translate(102.8272, 243.282401)"><g><path d="M 63.75 -74.609375 C 62.832031 -74.878906 61.382812 -75.109375 59.40625 -75.296875 C 57.4375 -75.492188 55.53125 -75.59375 53.6875 -75.59375 C 49.082031 -75.59375 45.628906 -75.265625 43.328125 -74.609375 C 41.023438 -73.953125 39.507812 -73.257812 38.78125 -72.53125 C 38.0625 -71.8125 37.703125 -71.453125 37.703125 -71.453125 L 37.703125 -3.546875 C 37.703125 -2.367188 37.304688 -1.484375 36.515625 -0.890625 C 35.722656 -0.296875 34.9375 0 34.15625 0 L 15.796875 0 C 15.003906 0 14.210938 -0.296875 13.421875 -0.890625 C 12.628906 -1.484375 12.234375 -2.367188 12.234375 -3.546875 L 12.234375 -88.4375 C 12.234375 -89.613281 13.941406 -90.957031 17.359375 -92.46875 C 20.785156 -93.988281 25.394531 -95.273438 31.1875 -96.328125 C 36.976562 -97.378906 43.492188 -97.90625 50.734375 -97.90625 C 52.441406 -97.90625 54.546875 -97.804688 57.046875 -97.609375 C 59.546875 -97.410156 61.71875 -97.113281 63.5625 -96.71875 C 65.132812 -96.0625 65.921875 -95.078125 65.921875 -93.765625 L 65.921875 -77.1875 C 65.921875 -75.46875 65.195312 -74.609375 63.75 -74.609375 Z M 63.75 -74.609375 "/></g></g></g><g fill="#fff9f9" fill-opacity="1"><g transform="translate(165.200409, 243.282401)"><g><path d="M 37.703125 -120.796875 L 37.703125 -88.625 C 40.335938 -91.78125 43.234375 -93.984375 46.390625 -95.234375 C 49.546875 -96.484375 52.503906 -97.238281 55.265625 -97.5 C 58.035156 -97.769531 60.207031 -97.90625 61.78125 -97.90625 C 71.519531 -97.90625 79.414062 -95.007812 85.46875 -89.21875 C 91.519531 -83.425781 94.546875 -74.476562 94.546875 -62.375 L 94.546875 -3.546875 C 94.546875 -2.367188 94.148438 -1.484375 93.359375 -0.890625 C 92.578125 -0.296875 91.789062 0 91 0 L 72.640625 0 C 71.847656 0 71.054688 -0.296875 70.265625 -0.890625 C 69.484375 -1.484375 69.09375 -2.367188 69.09375 -3.546875 L 69.09375 -61.390625 C 69.09375 -62.835938 68.660156 -64.675781 67.796875 -66.90625 C 66.941406 -69.144531 65.394531 -71.148438 63.15625 -72.921875 C 60.925781 -74.703125 57.769531 -75.59375 53.6875 -75.59375 C 51.71875 -75.59375 49.316406 -75.195312 46.484375 -74.40625 C 43.648438 -73.625 40.722656 -71.785156 37.703125 -68.890625 L 37.703125 -3.546875 C 37.703125 -2.367188 37.304688 -1.484375 36.515625 -0.890625 C 35.722656 -0.296875 34.9375 0 34.15625 0 L 15.796875 0 C 15.003906 0 14.210938 -0.296875 13.421875 -0.890625 C 12.628906 -1.484375 12.234375 -2.367188 12.234375 -3.546875 L 12.234375 -120.796875 C 12.234375 -121.984375 12.628906 -122.875 13.421875 -123.46875 C 14.210938 -124.0625 15.003906 -124.359375 15.796875 -124.359375 L 34.15625 -124.359375 C 34.9375 -124.359375 35.722656 -124.0625 36.515625 -123.46875 C 37.304688 -122.875 37.703125 -121.984375 37.703125 -120.796875 Z M 37.703125 -120.796875 "/></g></g></g><path stroke-linecap="butt" transform="matrix(1.908715, -0.338126, 0.338126, 1.908715, 180.794493, 327.021804)" fill="none" stroke-linejoin="miter" d="M -0.000623356 1.500855 L 84.226637 1.500296 " stroke="#daa520" stroke-width="3" stroke-opacity="1" stroke-miterlimit="4"/><path stroke-linecap="butt" transform="matrix(1.908715, -0.338126, 0.338126, 1.908715, 32.427787, 70.72854)" fill="none" stroke-linejoin="miter" d="M -0.000542626 1.498977 L 84.226367 1.500403 " stroke="#daa520" stroke-width="3" stroke-opacity="1" stroke-miterlimit="4"/></svg>